<svg width="41" height="27" viewBox="0 0 41 27" fill="none" xmlns="http://www.w3.org/2000/svg">
<g opacity="0.7">
<path d="M0.28125 10.4088V13.228C0.28125 13.4907 0.494517 13.704 0.757292 13.704H1.33235V14.6856H0.757292C0.494517 14.6856 0.28125 14.8989 0.28125 15.1616V17.9808C0.28125 18.2435 0.494517 18.4568 0.757292 18.4568H1.33235V19.4384H0.757292C0.494517 19.4384 0.28125 19.6517 0.28125 19.9144V22.7326C0.28125 22.9954 0.494517 23.2087 0.757292 23.2087H4.27334C4.5204 25.0338 6.08467 26.4462 7.97599 26.4462C9.8673 26.4462 11.4316 25.0338 11.6786 23.2087H29.1936C29.4407 25.0338 31.005 26.4462 32.8963 26.4462C34.7876 26.4462 36.3519 25.0338 36.5989 23.2087H40.343C40.6058 23.2087 40.8191 22.9954 40.8191 22.7326V17.4714C40.8191 15.7248 39.1819 13.1661 35.684 13.0494V12.0131C35.684 8.27142 32.7982 5.75745 28.5039 5.75745H26.5502C26.2874 5.75745 26.0741 5.97071 26.0741 6.23349V9.93281H24.0862V4.80251C24.0862 4.53973 23.8729 4.32646 23.6101 4.32646H13.1686L13.5452 3.2587C13.6328 3.01068 13.5024 2.73886 13.2543 2.65175L6.96202 0.433395C6.84301 0.391503 6.71162 0.398168 6.59832 0.452913C6.48455 0.507181 6.39696 0.60477 6.35459 0.72378L3.10846 9.93281H0.757292C0.494517 9.93281 0.28125 10.1456 0.28125 10.4088ZM12.4889 3.39152L10.1829 9.93281H4.11815L7.09483 1.48973L12.4889 3.39152ZM12.3584 6.62527V9.93281H11.1926L12.3584 6.62527ZM23.1341 9.93281H13.3105V5.27855H23.1341V9.93281ZM10.9079 20.39H26.0741V22.2566H11.6872C11.6029 21.5568 11.3249 20.9165 10.9079 20.39ZM39.8674 22.2566H36.6075C36.3847 20.4052 34.8071 18.9647 32.8968 18.9647C30.9864 18.9647 29.4088 20.4052 29.186 22.2566H27.0267V6.70905H28.5043C31.6043 6.70905 34.7324 8.34902 34.7324 12.0126V13.5141C34.7324 13.7768 34.9457 13.9901 35.2084 13.9901C35.2498 13.9901 35.2865 13.9763 35.3246 13.9668C35.3627 13.9768 35.3998 13.9901 35.4407 13.9901C38.4603 13.9901 39.8674 16.0671 39.8674 17.4709V22.2566ZM30.1081 22.7055C30.1081 21.1679 31.3587 19.9173 32.8963 19.9173C34.4339 19.9173 35.6845 21.1679 35.6845 22.7055C35.6845 24.2431 34.4339 25.4941 32.8963 25.4941C31.3587 25.4941 30.1081 24.2431 30.1081 22.7055ZM5.18781 22.7055C5.18781 21.1679 6.43885 19.9173 7.97646 19.9173C9.51408 19.9173 10.7646 21.1679 10.7646 22.7055C10.7646 24.2431 9.51408 25.4941 7.97646 25.4941C6.43885 25.4941 5.18781 24.2431 5.18781 22.7055ZM1.23333 20.39H5.04452C4.62751 20.9165 4.3495 21.5568 4.26524 22.257H1.23333V20.39ZM2.28443 18.4563H26.0741V19.4379H9.91871C9.88492 19.4379 9.85492 19.4503 9.82303 19.4574C9.27749 19.1461 8.64816 18.9657 7.97646 18.9657C7.31762 18.9657 6.69924 19.138 6.16132 19.4384H2.28491V18.4563H2.28443ZM1.23333 15.6372H26.0741V17.5042H1.23333V15.6372ZM2.28443 13.704H26.0741V14.6856H2.28443V13.704ZM1.23333 10.8849H26.0741V12.7519H1.23333V10.8849Z" fill="white"/>
<path d="M33.7972 13.5146V12.4978C33.7972 9.93621 31.7131 7.85162 29.151 7.85162H28.437C28.1742 7.85162 27.9609 8.06489 27.9609 8.32767V13.5141C27.9609 13.7769 28.1742 13.9902 28.437 13.9902H33.3212C33.5839 13.9907 33.7972 13.7774 33.7972 13.5146ZM32.8451 13.0386H28.913V8.80418H29.151C31.188 8.80418 32.8451 10.4613 32.8451 12.4983V13.0386Z" fill="white"/>
</g>
</svg>
