<svg width="39" height="39" viewBox="0 0 39 39" fill="none" xmlns="http://www.w3.org/2000/svg">
<g opacity="0.7">
<path d="M35.8587 2.81138C34.2409 2.81138 32.9248 4.12747 32.9248 5.74527V6.28407H29.0769V2.33674C29.0769 1.32887 28.2573 0.509277 27.2495 0.509277H12.389C11.3811 0.509277 10.5615 1.32887 10.5615 2.33674V6.28407H6.577V5.74527C6.577 4.12747 5.26091 2.81138 3.64311 2.81138C2.02532 2.81138 0.709229 4.12747 0.709229 5.74527V11.7953C0.709229 13.4131 2.02532 14.7292 3.64311 14.7292C5.26091 14.7292 6.577 13.4131 6.577 11.7953V11.2751H10.5615V15.2033C10.5615 16.2112 11.3811 17.0308 12.389 17.0308H12.8492V19.7759C12.8492 21.2059 14.0128 22.3695 15.4428 22.3695H16.2671V25.548C16.2671 25.8111 16.48 26.024 16.7431 26.024H17.5422V38.1166C17.5422 38.3797 17.7551 38.5926 18.0183 38.5926H21.6202C21.8833 38.5926 22.0962 38.3797 22.0962 38.1166V26.024H22.8954C23.1585 26.024 23.3714 25.8111 23.3714 25.548V22.3695H24.1957C25.6256 22.3695 26.7892 21.2059 26.7892 19.7759V17.0308H27.2495C28.2573 17.0308 29.0769 16.2112 29.0769 15.2033V11.2751H32.9248V11.7953C32.9248 13.4131 34.2409 14.7292 35.8587 14.7292C37.4765 14.7292 38.7926 13.4131 38.7926 11.7953V5.74527C38.7926 4.12747 37.4765 2.81138 35.8587 2.81138ZM5.62492 11.7953C5.62492 12.8882 4.73606 13.7771 3.64311 13.7771C2.55017 13.7771 1.66131 12.8882 1.66131 11.7953V5.74527C1.66131 4.65233 2.55017 3.76347 3.64311 3.76347C4.73606 3.76347 5.62492 4.65233 5.62492 5.74527V11.7953ZM6.577 10.323V7.23616H10.5615V10.323H6.577ZM21.1442 37.6405H18.4943V26.024H21.1442V37.6405ZM22.4193 25.0719H21.6202H18.0183H17.2191V22.3695H22.4193V25.0719ZM25.8372 19.7759C25.8372 20.6811 25.1008 21.4175 24.1957 21.4175H15.4428C14.5377 21.4175 13.8013 20.6811 13.8013 19.7759V17.0308H25.8372V19.7759ZM28.1249 15.2033C28.1249 15.6859 27.732 16.0787 27.2495 16.0787H26.3132H13.3253H12.389C11.9064 16.0787 11.5136 15.6859 11.5136 15.2033V2.33674C11.5136 1.85419 11.9064 1.46136 12.389 1.46136H27.2495C27.732 1.46136 28.1249 1.85419 28.1249 2.33674V15.2033ZM29.0769 10.323V7.23616H32.9248V10.323H29.0769ZM37.8405 11.7953C37.8405 12.8882 36.9516 13.7771 35.8587 13.7771C34.7657 13.7771 33.8769 12.8882 33.8769 11.7953V5.74527C33.8769 4.65233 34.7657 3.76347 35.8587 3.76347C36.9516 3.76347 37.8405 4.65233 37.8405 5.74527V11.7953Z" fill="white"/>
<path d="M15.0837 4.54919C14.8206 4.54919 14.6077 4.76211 14.6077 5.02524V12.515C14.6077 12.7781 14.8206 12.991 15.0837 12.991C15.3468 12.991 15.5597 12.7781 15.5597 12.515V5.02524C15.5597 4.76211 15.3468 4.54919 15.0837 4.54919Z" fill="white"/>
<path d="M18.2407 4.54919C17.9776 4.54919 17.7646 4.76211 17.7646 5.02524V12.515C17.7646 12.7781 17.9776 12.991 18.2407 12.991C18.5038 12.991 18.7167 12.7781 18.7167 12.515V5.02524C18.7167 4.76211 18.5038 4.54919 18.2407 4.54919Z" fill="white"/>
<path d="M21.3982 4.54919C21.135 4.54919 20.9221 4.76211 20.9221 5.02524V12.515C20.9221 12.7781 21.135 12.991 21.3982 12.991C21.6613 12.991 21.8742 12.7781 21.8742 12.515V5.02524C21.8742 4.76211 21.6613 4.54919 21.3982 4.54919Z" fill="white"/>
<path d="M24.5551 4.54919C24.292 4.54919 24.0791 4.76211 24.0791 5.02524V12.515C24.0791 12.7781 24.292 12.991 24.5551 12.991C24.8183 12.991 25.0312 12.7781 25.0312 12.515V5.02524C25.0312 4.76211 24.8183 4.54919 24.5551 4.54919Z" fill="white"/>
<path d="M7.7547 31.639C7.56875 31.8249 7.56875 32.1262 7.7547 32.3121L9.44316 34.0006C9.53614 34.0936 9.65794 34.1401 9.77974 34.1401C9.90154 34.1401 10.0233 34.0936 10.1163 34.0006C10.3023 33.8146 10.3023 33.5134 10.1163 33.3274L8.42785 31.639C8.2419 31.453 7.94065 31.453 7.7547 31.639Z" fill="white"/>
<path d="M11.6034 34.8146C11.4174 34.6287 11.1162 34.6287 10.9302 34.8146C10.7443 35.0006 10.7443 35.3018 10.9302 35.4878L13.8957 38.4533C13.9887 38.5463 14.1105 38.5928 14.2323 38.5928C14.3541 38.5928 14.4759 38.5463 14.5689 38.4533C14.7548 38.2673 14.7548 37.9661 14.5689 37.7801L11.6034 34.8146Z" fill="white"/>
<path d="M6.66687 23.5937C6.48091 23.4077 6.17967 23.4077 5.99371 23.5937C5.80776 23.7796 5.80776 24.0809 5.99371 24.2668L8.22981 26.5025C8.32278 26.5954 8.44458 26.6419 8.56638 26.6419C8.68818 26.6419 8.80998 26.5954 8.90296 26.5025C9.08891 26.3165 9.08891 26.0153 8.90296 25.8293L6.66687 23.5937Z" fill="white"/>
<path d="M14.569 31.4959L10.4357 27.3621C10.2497 27.1762 9.94847 27.1762 9.76251 27.3621C9.57656 27.5481 9.57656 27.8493 9.76251 28.0353L13.8958 32.169C13.9888 32.262 14.1106 32.3085 14.2324 32.3085C14.3542 32.3085 14.476 32.262 14.569 32.169C14.7549 31.9831 14.7549 31.6818 14.569 31.4959Z" fill="white"/>
<path d="M29.5223 34.0006C29.6153 34.0936 29.7371 34.1401 29.8589 34.1401C29.9807 34.1401 30.1025 34.0936 30.1954 34.0006L31.8839 32.3121C32.0698 32.1262 32.0698 31.8249 31.8839 31.639C31.6979 31.453 31.3967 31.453 31.2107 31.639L29.5223 33.3274C29.3363 33.5134 29.3363 33.8146 29.5223 34.0006Z" fill="white"/>
<path d="M25.0699 38.4533C25.1629 38.5463 25.2847 38.5928 25.4065 38.5928C25.5283 38.5928 25.6501 38.5463 25.743 38.4533L28.7085 35.4878C28.8945 35.3018 28.8945 35.0006 28.7085 34.8146C28.5226 34.6287 28.2213 34.6287 28.0354 34.8146L25.0699 37.7801C24.8839 37.9661 24.8839 38.2673 25.0699 38.4533Z" fill="white"/>
<path d="M31.4088 26.5025L33.6449 24.2668C33.8309 24.0809 33.8309 23.7796 33.6449 23.5937C33.4589 23.4077 33.1577 23.4077 32.9718 23.5937L30.7357 25.8293C30.5497 26.0153 30.5497 26.3165 30.7357 26.5025C30.8286 26.5954 30.9504 26.6419 31.0722 26.6419C31.194 26.6419 31.3158 26.5954 31.4088 26.5025Z" fill="white"/>
<path d="M29.2032 27.3621L25.0699 31.4959C24.8839 31.6818 24.8839 31.9831 25.0699 32.169C25.1629 32.262 25.2847 32.3085 25.4065 32.3085C25.5283 32.3085 25.6501 32.262 25.743 32.169L29.8763 28.0353C30.0623 27.8493 30.0623 27.5481 29.8763 27.3621C29.6904 27.1762 29.3891 27.1762 29.2032 27.3621Z" fill="white"/>
</g>
</svg>
