<svg width="39" height="39" viewBox="0 0 39 39" fill="none" xmlns="http://www.w3.org/2000/svg">
<path opacity="0.7" d="M38.277 4.97539H35.6932V2.11449C35.6932 1.0685 34.8422 0.217529 33.7962 0.217529H2.60619C1.5602 0.217529 0.709229 1.0685 0.709229 2.11449V8.78837C0.709229 9.80731 1.51848 10.6349 2.52716 10.6773V17.3952C2.52716 18.4519 3.38464 19.3117 4.43853 19.3117C5.49242 19.3117 6.34967 18.4519 6.34967 17.3952V15.0053C6.34967 14.4734 6.77992 14.0409 7.30873 14.0409C7.83753 14.0409 8.26778 14.4734 8.26778 15.0053V23.4229C8.26778 24.4798 9.12503 25.3397 10.1789 25.3397C11.2328 25.3397 12.0901 24.4798 12.0901 23.4229V16.6793C12.0901 16.1475 12.5203 15.7149 13.0494 15.7149C13.5782 15.7149 14.0084 16.1475 14.0084 16.6793V18.1707C14.0084 19.2274 14.8657 20.0872 15.9195 20.0872C16.9734 20.0872 17.8307 19.2274 17.8307 18.1707V13.682C17.8307 13.1501 18.2609 12.7176 18.7897 12.7176C19.3186 12.7176 19.7488 13.1501 19.7488 13.682V15.869C19.7488 16.9257 20.6063 17.7855 21.6602 17.7855C22.7141 17.7855 23.5713 16.9257 23.5713 15.869V14.324C23.5713 13.7922 24.0016 13.3593 24.5304 13.3593C25.0592 13.3593 25.4894 13.7922 25.4894 14.324V14.5027C25.4894 15.5594 26.3467 16.4192 27.4006 16.4192C28.4545 16.4192 29.3117 15.5594 29.3117 14.5027V10.6853H33.7962C34.8422 10.6853 35.6932 9.83436 35.6932 8.78837V5.92747H37.8031L37.8391 13.8047L19.1614 22.125C18.9896 22.2014 18.879 22.3718 18.879 22.5599V24.3492H16.7101C16.4586 24.3492 16.2505 24.5447 16.235 24.7955L15.6225 34.6173C15.6225 36.6484 17.2698 38.3009 19.2944 38.3009C21.3189 38.3009 22.966 36.6484 22.9651 34.5876L22.3535 24.7955C22.338 24.5447 22.1299 24.3492 21.8784 24.3492H19.8311V22.869L38.5101 14.5481C38.6826 14.4711 38.7935 14.2998 38.7926 14.1111L38.753 5.44934C38.7519 5.18714 38.539 4.97539 38.277 4.97539ZM28.3596 14.5027C28.3596 15.0346 27.9294 15.4671 27.4006 15.4671C26.8718 15.4671 26.4415 15.0346 26.4415 14.5027V14.324C26.4415 13.2671 25.5843 12.4073 24.5304 12.4073C23.4765 12.4073 22.6192 13.2671 22.6192 14.324V15.869C22.6192 16.4009 22.189 16.8334 21.6602 16.8334C21.1311 16.8334 20.7009 16.4009 20.7009 15.869V13.682C20.7009 12.6253 19.8436 11.7655 18.7897 11.7655C17.7359 11.7655 16.8786 12.6253 16.8786 13.682V18.1707C16.8786 18.7025 16.4484 19.1351 15.9195 19.1351C15.3907 19.1351 14.9605 18.7025 14.9605 18.1707V16.6793C14.9605 15.6226 14.1032 14.7628 13.0494 14.7628C11.9955 14.7628 11.138 15.6226 11.138 16.6793V23.4229C11.138 23.9548 10.7077 24.3876 10.1789 24.3876C9.65012 24.3876 9.21987 23.9548 9.21987 23.4229V15.0053C9.21987 13.9486 8.36262 13.0888 7.30873 13.0888C6.25483 13.0888 5.39759 13.9486 5.39759 15.0053V17.3952C5.39759 17.9271 4.96734 18.3596 4.43853 18.3596C3.90949 18.3596 3.47924 17.9271 3.47924 17.3952V10.6853H28.3596V14.5027ZM34.7411 8.78837C34.7411 9.30927 34.3171 9.73325 33.7962 9.73325H2.60619C2.08529 9.73325 1.66131 9.30927 1.66131 8.78837V2.11449C1.66131 1.59359 2.08529 1.16961 2.60619 1.16961H33.7962C34.3171 1.16961 34.7411 1.59359 34.7411 2.11449V8.78837ZM22.014 34.6173C22.014 36.1236 20.7939 37.3488 19.2944 37.3488C17.7947 37.3488 16.5746 36.1236 16.5736 34.6471L17.1573 25.3013H21.4312L22.014 34.6173Z" fill="white"/>
</svg>
