<svg width="30" height="39" viewBox="0 0 30 39" fill="none" xmlns="http://www.w3.org/2000/svg">
<g opacity="0.7">
<path d="M27.7843 0.217773H2.11373C1.20735 0.217773 0.469482 0.955638 0.469482 1.86202V36.6569C0.469482 37.5632 1.20687 38.3011 2.11373 38.3011H27.7848C28.6916 38.3011 29.429 37.5632 29.429 36.6569V1.86202C29.429 0.955638 28.6911 0.217773 27.7843 0.217773ZM9.59996 6.56484H20.2985C21.4829 6.56484 22.4469 5.60133 22.4469 4.41646V3.79427H25.6602V34.4066H4.2383V3.79427H7.45159V4.41646C7.45159 5.60085 8.41509 6.56484 9.59996 6.56484ZM21.4948 4.41646C21.4948 5.07625 20.9583 5.61275 20.2985 5.61275H9.59996C8.94017 5.61275 8.40367 5.07625 8.40367 4.41646V3.79427H21.4948V4.41646ZM8.40367 2.84219V1.16938H21.4948V2.84219H8.40367ZM28.4769 36.6569C28.4769 37.0386 28.1665 37.349 27.7848 37.349H2.11373C1.73195 37.349 1.42157 37.0386 1.42157 36.6569V1.86202C1.42157 1.48024 1.73195 1.16986 2.11373 1.16986H7.45159V2.84267H3.76226C3.49949 2.84267 3.28622 3.05546 3.28622 3.31871V34.8831C3.28622 35.1464 3.49949 35.3592 3.76226 35.3592H26.1362C26.399 35.3592 26.6123 35.1464 26.6123 34.8831V3.31823C26.6123 3.05498 26.399 2.84219 26.1362 2.84219H22.4469V1.16938H27.7848C28.1665 1.16938 28.4769 1.47976 28.4769 1.86155V36.6569Z" fill="white"/>
<path d="M6.64795 11.8524C6.64795 12.9421 7.53434 13.8284 8.624 13.8284C9.71366 13.8284 10.6 12.9421 10.6 11.8524C10.6 10.7627 9.71366 9.87634 8.624 9.87634C7.53434 9.87634 6.64795 10.7627 6.64795 11.8524ZM8.624 10.8284C9.18858 10.8284 9.64796 11.2878 9.64796 11.8524C9.64796 12.417 9.18858 12.8764 8.624 12.8764C8.05941 12.8764 7.60003 12.417 7.60003 11.8524C7.60003 11.2878 8.05941 10.8284 8.624 10.8284Z" fill="white"/>
<path d="M18.1035 12.3283H22.6164C22.8791 12.3283 23.0924 12.1155 23.0924 11.8523C23.0924 11.589 22.8791 11.3762 22.6164 11.3762H18.1035C17.8407 11.3762 17.6274 11.589 17.6274 11.8523C17.6274 12.1155 17.8407 12.3283 18.1035 12.3283Z" fill="white"/>
<path d="M8.624 15.3431C7.53434 15.3431 6.64795 16.2295 6.64795 17.3192C6.64795 18.4088 7.53434 19.2952 8.624 19.2952C9.71366 19.2952 10.6 18.4088 10.6 17.3192C10.6 16.2295 9.71366 15.3431 8.624 15.3431ZM8.624 18.3436C8.05941 18.3436 7.60003 17.8843 7.60003 17.3197C7.60003 16.7551 8.05941 16.2957 8.624 16.2957C9.18858 16.2957 9.64796 16.7551 9.64796 17.3197C9.64796 17.8843 9.18858 18.3436 8.624 18.3436Z" fill="white"/>
<path d="M18.1035 17.7956H22.6164C22.8791 17.7956 23.0924 17.5828 23.0924 17.3195C23.0924 17.0563 22.8791 16.8435 22.6164 16.8435H18.1035C17.8407 16.8435 17.6274 17.0563 17.6274 17.3195C17.6274 17.5828 17.8407 17.7956 18.1035 17.7956Z" fill="white"/>
<path d="M8.624 20.8101C7.53434 20.8101 6.64795 21.6964 6.64795 22.7861C6.64795 23.8762 7.53434 24.7626 8.624 24.7626C9.71366 24.7626 10.6 23.8762 10.6 22.7861C10.6005 21.6964 9.71366 20.8101 8.624 20.8101ZM8.624 23.8105C8.05941 23.8105 7.60003 23.3507 7.60003 22.7861C7.60003 22.2215 8.05941 21.7621 8.624 21.7621C9.18858 21.7621 9.64796 22.2215 9.64796 22.7861C9.64796 23.3507 9.18858 23.8105 8.624 23.8105Z" fill="white"/>
<path d="M18.1035 23.262H22.6164C22.8791 23.262 23.0924 23.0492 23.0924 22.786C23.0924 22.5227 22.8791 22.3099 22.6164 22.3099H18.1035C17.8407 22.3099 17.6274 22.5227 17.6274 22.786C17.6274 23.0492 17.8407 23.262 18.1035 23.262Z" fill="white"/>
<path d="M8.624 26.2769C7.53434 26.2769 6.64795 27.1632 6.64795 28.2529C6.64795 29.3426 7.53434 30.229 8.624 30.229C9.71366 30.229 10.6 29.3426 10.6 28.2529C10.6 27.1632 9.71366 26.2769 8.624 26.2769ZM8.624 29.2773C8.05941 29.2773 7.60003 28.818 7.60003 28.2534C7.60003 27.6888 8.05941 27.2294 8.624 27.2294C9.18858 27.2294 9.64796 27.6888 9.64796 28.2534C9.64796 28.818 9.18858 29.2773 8.624 29.2773Z" fill="white"/>
<path d="M14.167 13.8289C15.2566 13.8289 16.143 12.9425 16.143 11.8529C16.143 10.7632 15.2566 9.87683 14.167 9.87683C13.0773 9.87683 12.1909 10.7632 12.1909 11.8529C12.1909 12.9425 13.0773 13.8289 14.167 13.8289ZM14.167 10.8284C14.7316 10.8284 15.1909 11.2878 15.1909 11.8524C15.1909 12.417 14.7316 12.8764 14.167 12.8764C13.6024 12.8764 13.143 12.417 13.143 11.8524C13.143 11.2878 13.6024 10.8284 14.167 10.8284Z" fill="white"/>
<path d="M14.167 19.2957C15.2566 19.2957 16.143 18.4093 16.143 17.3197C16.143 16.23 15.2566 15.3436 14.167 15.3436C13.0773 15.3436 12.1909 16.23 12.1909 17.3197C12.1909 18.4093 13.0773 19.2957 14.167 19.2957ZM14.167 16.2952C14.7316 16.2952 15.1909 16.7546 15.1909 17.3192C15.1909 17.8838 14.7316 18.3432 14.167 18.3432C13.6024 18.3432 13.143 17.8838 13.143 17.3192C13.143 16.7546 13.6024 16.2952 14.167 16.2952Z" fill="white"/>
<path d="M14.167 24.7626C15.2566 24.7626 16.143 23.8762 16.143 22.7861C16.143 21.6964 15.2566 20.8101 14.167 20.8101C13.0773 20.8101 12.1909 21.6964 12.1909 22.7861C12.1909 23.8762 13.0773 24.7626 14.167 24.7626ZM14.167 21.7621C14.7316 21.7621 15.1909 22.2215 15.1909 22.7861C15.1909 23.3507 14.7316 23.8105 14.167 23.8105C13.6024 23.8105 13.143 23.3507 13.143 22.7861C13.143 22.2215 13.6024 21.7621 14.167 21.7621Z" fill="white"/>
<path d="M14.167 30.2296C15.2566 30.2296 16.143 29.3432 16.143 28.2535C16.143 27.1639 15.2566 26.2775 14.167 26.2775C13.0773 26.2775 12.1909 27.1639 12.1909 28.2535C12.1909 29.3432 13.0773 30.2296 14.167 30.2296ZM14.167 27.2291C14.7316 27.2291 15.1909 27.6885 15.1909 28.253C15.1909 28.8176 14.7316 29.277 14.167 29.277C13.6024 29.277 13.143 28.8176 13.143 28.253C13.143 27.6885 13.6024 27.2291 14.167 27.2291Z" fill="white"/>
<path d="M18.1035 28.7289H22.6164C22.8791 28.7289 23.0924 28.5161 23.0924 28.2529C23.0924 27.9896 22.8791 27.7769 22.6164 27.7769H18.1035C17.8407 27.7769 17.6274 27.9896 17.6274 28.2529C17.6274 28.5161 17.8407 28.7289 18.1035 28.7289Z" fill="white"/>
</g>
</svg>
