<svg width="104" height="24" viewBox="0 0 104 24" fill="none" xmlns="http://www.w3.org/2000/svg">
<path d="M19.5414 9C20.8854 8.964 21.9414 7.896 21.9414 6.6C21.9414 5.88 21.6654 5.28 21.1254 4.8C21.6654 4.32 21.9414 3.72 21.9414 3C21.9414 1.668 20.8014 0.599999 19.5414 0.599999H13.5414V9H19.5414ZM19.5414 5.4C20.2014 5.4 20.7414 5.94 20.7414 6.6C20.7414 7.26 20.2014 7.8 19.5414 7.8H14.7414V5.4H19.5414ZM14.7414 1.8H19.5414C20.2014 1.8 20.7414 2.34 20.7414 3C20.7414 3.66 20.2014 4.2 19.5414 4.2H14.7414V1.8ZM30.1019 6.6C30.1019 7.26 29.5619 7.8 28.9019 7.8H25.3019C24.6419 7.8 24.1019 7.26 24.1019 6.6V3C24.1019 2.34 24.6419 1.8 25.3019 1.8H28.9019C29.5619 1.8 30.1019 2.34 30.1019 3V6.6ZM31.3019 3C31.3019 1.692 30.1739 0.599999 28.9019 0.599999H25.3019C23.9819 0.599999 22.9019 1.68 22.9019 3V6.6C22.9019 7.932 23.9699 9 25.3019 9H28.9019C30.2219 9 31.3019 7.92 31.3019 6.6V3ZM39.5852 6.6C39.5852 7.26 39.0452 7.8 38.3852 7.8H34.7852C34.1252 7.8 33.5852 7.26 33.5852 6.6V0.599999H32.3852V6.6C32.3852 7.956 33.5012 9 34.7852 9H38.3852C39.7292 9 40.7852 7.872 40.7852 6.6V0.599999H39.5852V6.6ZM49.1828 7.8C48.5228 7.8 47.9828 7.26 47.9828 6.6V0.599999H46.7828V6.6C46.7828 7.26 46.2428 7.8 45.5828 7.8H44.3828C43.7228 7.8 43.1828 7.26 43.1828 6.6V0.599999H41.9828V6.6C41.9828 7.956 43.0988 9 44.3828 9H45.5828C46.3028 9 46.9028 8.724 47.3828 8.184C47.8628 8.724 48.4628 9 49.1828 9H50.3828C51.7268 9 52.7828 7.872 52.7828 6.6V0.599999H51.5828V6.6C51.5828 7.26 51.0428 7.8 50.3828 7.8H49.1828ZM55.1828 0.599999H53.9828V9H62.3828V7.8H55.1828V0.599999ZM68.9828 1.8C69.6428 1.8 70.1828 2.34 70.1828 3V5.4H64.1828V3C64.1828 2.34 64.7228 1.8 65.3828 1.8H68.9828ZM71.3828 3C71.3468 1.668 70.2668 0.599999 68.9828 0.599999H65.3828C64.0388 0.599999 62.9828 1.728 62.9828 3V9H64.1828V6.6H70.1828V9H71.3828V3ZM80.9805 0.599999H79.7805V6.96L73.7805 0.599999H72.5805V9H73.7805V2.544L79.7805 9H80.9805V0.599999ZM89.3781 6.6C89.3781 7.26 88.8381 7.8 88.1781 7.8H83.3781V1.8H88.1781C88.8381 1.8 89.3781 2.34 89.3781 3V6.6ZM90.5781 3C90.5421 1.668 89.4621 0.599999 88.1781 0.599999H82.1781V9H88.1781C89.5221 9 90.5781 7.872 90.5781 6.6V3ZM3.09484 15.6C1.75084 15.636 0.694844 16.704 0.694844 18V21.6C0.694844 22.956 1.81084 24 3.09484 24H6.69484C8.03884 24 9.09484 22.872 9.09484 21.6H7.89484C7.89484 22.26 7.35484 22.8 6.69484 22.8H3.09484C2.43484 22.8 1.89484 22.26 1.89484 21.6V18C1.89484 17.34 2.43484 16.8 3.09484 16.8H6.69484C7.35484 16.8 7.89484 17.34 7.89484 18H9.09484C9.05884 16.668 7.97884 15.6 6.69484 15.6H3.09484ZM17.1292 21.6C17.1292 22.26 16.5892 22.8 15.9292 22.8H12.3292C11.6692 22.8 11.1292 22.26 11.1292 21.6V18C11.1292 17.34 11.6692 16.8 12.3292 16.8H15.9292C16.5892 16.8 17.1292 17.34 17.1292 18V21.6ZM18.3292 18C18.3292 16.692 17.2012 15.6 15.9292 15.6H12.3292C11.0092 15.6 9.92922 16.68 9.92922 18V21.6C9.92922 22.932 10.9972 24 12.3292 24H15.9292C17.2492 24 18.3292 22.92 18.3292 21.6V18ZM27.8125 15.6H26.6125V21.96L20.6125 15.6H19.4125V24H20.6125V17.544L26.6125 24H27.8125V15.6ZM37.2902 21.6C37.2902 20.268 36.1502 19.2 34.8902 19.2H31.2902C30.6302 19.2 30.0902 18.66 30.0902 18C30.0902 17.34 30.6302 16.8 31.2902 16.8H34.8902C35.5502 16.8 36.0902 17.34 36.0902 18H37.2902C37.2542 16.668 36.1742 15.6 34.8902 15.6H31.2902C29.9462 15.6 28.8902 16.728 28.8902 18C28.8902 19.356 30.0062 20.4 31.2902 20.4H34.8902C35.5502 20.4 36.0902 20.94 36.0902 21.6C36.0902 22.26 35.5502 22.8 34.8902 22.8H31.2902C30.6302 22.8 30.0902 22.26 30.0902 21.6H28.8902C28.9262 22.956 29.9822 24 31.2902 24H34.8902C36.2342 24 37.2902 22.872 37.2902 21.6ZM45.9391 16.8V15.6H37.5391V16.8H41.1391V24H42.3391V16.8H45.9391ZM53.7414 19.2C53.7414 19.86 53.2014 20.4 52.5414 20.4H47.7414V16.8H52.5414C53.2014 16.8 53.7414 17.34 53.7414 18V19.2ZM54.9414 24V23.148L53.2734 21.48C54.2694 21.144 54.9414 20.22 54.9414 19.2V18C54.9414 16.668 53.8014 15.6 52.5414 15.6H46.5414V24H47.7414V21.6H51.6894L54.0894 24H54.9414ZM63.2219 21.6C63.2219 22.26 62.6819 22.8 62.0219 22.8H58.4219C57.7619 22.8 57.2219 22.26 57.2219 21.6V15.6H56.0219V21.6C56.0219 22.956 57.1379 24 58.4219 24H62.0219C63.3659 24 64.4219 22.872 64.4219 21.6V15.6H63.2219V21.6ZM67.8995 15.6C66.5555 15.636 65.4995 16.704 65.4995 18V21.6C65.4995 22.956 66.6155 24 67.8995 24H71.4995C72.8435 24 73.8995 22.872 73.8995 21.6H72.6995C72.6995 22.26 72.1595 22.8 71.4995 22.8H67.8995C67.2395 22.8 66.6995 22.26 66.6995 21.6V18C66.6995 17.34 67.2395 16.8 67.8995 16.8H71.4995C72.1595 16.8 72.6995 17.34 72.6995 18H73.8995C73.8635 16.668 72.7835 15.6 71.4995 15.6H67.8995ZM82.4195 16.8V15.6H74.0195V16.8H77.6195V24H78.8195V16.8H82.4195ZM83.0219 24H84.2219V15.6H83.0219V24ZM92.5042 21.6C92.5042 22.26 91.9642 22.8 91.3042 22.8H87.7042C87.0442 22.8 86.5042 22.26 86.5042 21.6V18C86.5042 17.34 87.0442 16.8 87.7042 16.8H91.3042C91.9642 16.8 92.5042 17.34 92.5042 18V21.6ZM93.7042 18C93.7042 16.692 92.5762 15.6 91.3042 15.6H87.7042C86.3842 15.6 85.3042 16.68 85.3042 18V21.6C85.3042 22.932 86.3722 24 87.7042 24H91.3042C92.6242 24 93.7042 22.92 93.7042 21.6V18ZM103.188 15.6H101.988V21.96L95.9875 15.6H94.7875V24H95.9875V17.544L101.988 24H103.188V15.6Z" fill="white"/>
</svg>
