<svg width="186" height="9" viewBox="0 0 186 9" fill="none" xmlns="http://www.w3.org/2000/svg">
<path d="M6.6 9C7.944 8.964 9 7.896 9 6.6C9 5.88 8.724 5.28 8.184 4.8C8.724 4.32 9 3.72 9 3C9 1.668 7.86 0.599999 6.6 0.599999H0.6V9H6.6ZM6.6 5.4C7.26 5.4 7.8 5.94 7.8 6.6C7.8 7.26 7.26 7.8 6.6 7.8H1.8V5.4H6.6ZM1.8 1.8H6.6C7.26 1.8 7.8 2.34 7.8 3C7.8 3.66 7.26 4.2 6.6 4.2H1.8V1.8ZM17.1605 6.6C17.1605 7.26 16.6205 7.8 15.9605 7.8H12.3605C11.7005 7.8 11.1605 7.26 11.1605 6.6V3C11.1605 2.34 11.7005 1.8 12.3605 1.8H15.9605C16.6205 1.8 17.1605 2.34 17.1605 3V6.6ZM18.3605 3C18.3605 1.692 17.2325 0.599999 15.9605 0.599999H12.3605C11.0405 0.599999 9.96047 1.68 9.96047 3V6.6C9.96047 7.932 11.0285 9 12.3605 9H15.9605C17.2805 9 18.3605 7.92 18.3605 6.6V3ZM26.6438 6.6C26.6438 7.26 26.1038 7.8 25.4438 7.8H21.8438C21.1838 7.8 20.6438 7.26 20.6438 6.6V0.599999H19.4438V6.6C19.4438 7.956 20.5598 9 21.8438 9H25.4438C26.7878 9 27.8438 7.872 27.8438 6.6V0.599999H26.6438V6.6ZM36.2414 7.8C35.5814 7.8 35.0414 7.26 35.0414 6.6V0.599999H33.8414V6.6C33.8414 7.26 33.3014 7.8 32.6414 7.8H31.4414C30.7814 7.8 30.2414 7.26 30.2414 6.6V0.599999H29.0414V6.6C29.0414 7.956 30.1574 9 31.4414 9H32.6414C33.3614 9 33.9614 8.724 34.4414 8.184C34.9214 8.724 35.5214 9 36.2414 9H37.4414C38.7854 9 39.8414 7.872 39.8414 6.6V0.599999H38.6414V6.6C38.6414 7.26 38.1014 7.8 37.4414 7.8H36.2414ZM42.2414 0.599999H41.0414V9H49.4414V7.8H42.2414V0.599999ZM56.0414 1.8C56.7014 1.8 57.2414 2.34 57.2414 3V5.4H51.2414V3C51.2414 2.34 51.7814 1.8 52.4414 1.8H56.0414ZM58.4414 3C58.4054 1.668 57.3254 0.599999 56.0414 0.599999H52.4414C51.0974 0.599999 50.0414 1.728 50.0414 3V9H51.2414V6.6H57.2414V9H58.4414V3ZM68.0391 0.599999H66.8391V6.96L60.8391 0.599999H59.6391V9H60.8391V2.544L66.8391 9H68.0391V0.599999ZM76.4367 6.6C76.4367 7.26 75.8967 7.8 75.2367 7.8H70.4367V1.8H75.2367C75.8967 1.8 76.4367 2.34 76.4367 3V6.6ZM77.6367 3C77.6007 1.668 76.5207 0.599999 75.2367 0.599999H69.2367V9H75.2367C76.5807 9 77.6367 7.872 77.6367 6.6V3ZM85.8019 0.599999C84.4579 0.636 83.4019 1.704 83.4019 3V6.6C83.4019 7.956 84.5179 9 85.8019 9H89.4019C90.7459 9 91.8019 7.872 91.8019 6.6H90.6019C90.6019 7.26 90.0619 7.8 89.4019 7.8H85.8019C85.1419 7.8 84.6019 7.26 84.6019 6.6V3C84.6019 2.34 85.1419 1.8 85.8019 1.8H89.4019C90.0619 1.8 90.6019 2.34 90.6019 3H91.8019C91.7659 1.668 90.6859 0.599999 89.4019 0.599999H85.8019ZM99.8363 6.6C99.8363 7.26 99.2963 7.8 98.6363 7.8H95.0363C94.3763 7.8 93.8363 7.26 93.8363 6.6V3C93.8363 2.34 94.3763 1.8 95.0363 1.8H98.6363C99.2963 1.8 99.8363 2.34 99.8363 3V6.6ZM101.036 3C101.036 1.692 99.9083 0.599999 98.6363 0.599999H95.0363C93.7163 0.599999 92.6363 1.68 92.6363 3V6.6C92.6363 7.932 93.7043 9 95.0363 9H98.6363C99.9563 9 101.036 7.92 101.036 6.6V3ZM110.52 0.599999H109.32V6.96L103.32 0.599999H102.12V9H103.32V2.544L109.32 9H110.52V0.599999ZM119.997 6.6C119.997 5.268 118.857 4.2 117.597 4.2H113.997C113.337 4.2 112.797 3.66 112.797 3C112.797 2.34 113.337 1.8 113.997 1.8H117.597C118.257 1.8 118.797 2.34 118.797 3H119.997C119.961 1.668 118.881 0.599999 117.597 0.599999H113.997C112.653 0.599999 111.597 1.728 111.597 3C111.597 4.356 112.713 5.4 113.997 5.4H117.597C118.257 5.4 118.797 5.94 118.797 6.6C118.797 7.26 118.257 7.8 117.597 7.8H113.997C113.337 7.8 112.797 7.26 112.797 6.6H111.597C111.633 7.956 112.689 9 113.997 9H117.597C118.941 9 119.997 7.872 119.997 6.6ZM128.646 1.8V0.599999H120.246V1.8H123.846V9H125.046V1.8H128.646ZM136.448 4.2C136.448 4.86 135.908 5.4 135.248 5.4H130.448V1.8H135.248C135.908 1.8 136.448 2.34 136.448 3V4.2ZM137.648 9V8.148L135.98 6.48C136.976 6.144 137.648 5.22 137.648 4.2V3C137.648 1.668 136.508 0.599999 135.248 0.599999H129.248V9H130.448V6.6H134.396L136.796 9H137.648ZM145.929 6.6C145.929 7.26 145.389 7.8 144.729 7.8H141.129C140.469 7.8 139.929 7.26 139.929 6.6V0.599999H138.729V6.6C138.729 7.956 139.845 9 141.129 9H144.729C146.073 9 147.129 7.872 147.129 6.6V0.599999H145.929V6.6ZM150.607 0.599999C149.263 0.636 148.207 1.704 148.207 3V6.6C148.207 7.956 149.323 9 150.607 9H154.207C155.551 9 156.607 7.872 156.607 6.6H155.407C155.407 7.26 154.867 7.8 154.207 7.8H150.607C149.947 7.8 149.407 7.26 149.407 6.6V3C149.407 2.34 149.947 1.8 150.607 1.8H154.207C154.867 1.8 155.407 2.34 155.407 3H156.607C156.571 1.668 155.491 0.599999 154.207 0.599999H150.607ZM165.127 1.8V0.599999H156.727V1.8H160.327V9H161.527V1.8H165.127ZM165.729 9H166.929V0.599999H165.729V9ZM175.211 6.6C175.211 7.26 174.671 7.8 174.011 7.8H170.411C169.751 7.8 169.211 7.26 169.211 6.6V3C169.211 2.34 169.751 1.8 170.411 1.8H174.011C174.671 1.8 175.211 2.34 175.211 3V6.6ZM176.411 3C176.411 1.692 175.283 0.599999 174.011 0.599999H170.411C169.091 0.599999 168.011 1.68 168.011 3V6.6C168.011 7.932 169.079 9 170.411 9H174.011C175.331 9 176.411 7.92 176.411 6.6V3ZM185.895 0.599999H184.695V6.96L178.695 0.599999H177.495V9H178.695V2.544L184.695 9H185.895V0.599999Z" fill="white"/>
</svg>
