<svg width="22" height="20" viewBox="0 0 22 20" fill="none" xmlns="http://www.w3.org/2000/svg">
<path opacity="0.6" fill-rule="evenodd" clip-rule="evenodd" d="M6.465 0.06C7.638 0.0109091 8.012 0 11 0C13.988 0 14.362 0.0118182 15.534 0.06C16.706 0.108182 17.506 0.278182 18.206 0.524545C18.939 0.776364 19.604 1.17 20.154 1.67909C20.714 2.17818 21.146 2.78182 21.422 3.44909C21.694 4.08545 21.88 4.81273 21.934 5.87636C21.988 6.94455 22 7.28455 22 10C22 12.7164 21.987 13.0564 21.934 14.1227C21.881 15.1864 21.694 15.9136 21.422 16.55C21.146 17.2174 20.7133 17.822 20.154 18.3218C19.604 18.8309 18.939 19.2236 18.206 19.4745C17.506 19.7218 16.706 19.8909 15.536 19.94C14.362 19.9891 13.988 20 11 20C8.012 20 7.638 19.9882 6.465 19.94C5.295 19.8918 4.495 19.7218 3.795 19.4745C3.06092 19.2236 2.39582 18.8302 1.846 18.3218C1.28638 17.8224 0.853315 17.2181 0.577 16.5509C0.306 15.9145 0.12 15.1873 0.066 14.1236C0.012 13.0555 0 12.7155 0 10C0 7.28364 0.013 6.94364 0.066 5.87818C0.119 4.81273 0.306 4.08545 0.577 3.44909C0.853723 2.78189 1.28712 2.17756 1.847 1.67818C2.39604 1.16955 3.06047 0.775858 3.794 0.524545C4.494 0.278182 5.294 0.109091 6.464 0.06H6.465ZM15.445 1.86C14.285 1.81182 13.937 1.80182 11 1.80182C8.063 1.80182 7.715 1.81182 6.555 1.86C5.482 1.90455 4.9 2.06727 4.512 2.20455C3.999 2.38636 3.632 2.60182 3.247 2.95182C2.88205 3.27459 2.60118 3.66753 2.425 4.10182C2.274 4.45455 2.095 4.98364 2.046 5.95909C1.993 7.01364 1.982 7.33 1.982 10C1.982 12.67 1.993 12.9864 2.046 14.0409C2.095 15.0164 2.274 15.5455 2.425 15.8982C2.601 16.3318 2.882 16.7255 3.247 17.0482C3.602 17.38 4.035 17.6355 4.512 17.7955C4.9 17.9327 5.482 18.0955 6.555 18.14C7.715 18.1882 8.062 18.1982 11 18.1982C13.938 18.1982 14.285 18.1882 15.445 18.14C16.518 18.0955 17.1 17.9327 17.488 17.7955C18.001 17.6136 18.368 17.3982 18.753 17.0482C19.118 16.7255 19.399 16.3318 19.575 15.8982C19.726 15.5455 19.905 15.0164 19.954 14.0409C20.007 12.9864 20.018 12.67 20.018 10C20.018 7.33 20.007 7.01364 19.954 5.95909C19.905 4.98364 19.726 4.45455 19.575 4.10182C19.375 3.63545 19.138 3.30182 18.753 2.95182C18.3979 2.62006 17.9657 2.36474 17.488 2.20455C17.1 2.06727 16.518 1.90455 15.445 1.86ZM9.595 13.0827C10.3797 13.3797 11.2534 13.4197 12.0669 13.1961C12.8805 12.9725 13.5834 12.499 14.0556 11.8566C14.5278 11.2142 14.7401 10.4426 14.656 9.67373C14.572 8.90485 14.197 8.18634 13.595 7.64091C13.2112 7.29225 12.7472 7.02528 12.2363 6.85922C11.7255 6.69317 11.1804 6.63215 10.6405 6.68056C10.1006 6.72897 9.57915 6.88562 9.1138 7.13921C8.64845 7.3928 8.25074 7.73704 7.9493 8.14714C7.64786 8.55723 7.45019 9.02299 7.37052 9.51087C7.29084 9.99876 7.33115 10.4966 7.48854 10.9687C7.64593 11.4407 7.91648 11.8751 8.28072 12.2407C8.64496 12.6062 9.09382 12.8938 9.595 13.0827ZM7.002 6.36545C7.52702 5.88816 8.15032 5.50955 8.8363 5.25124C9.52228 4.99293 10.2575 4.85998 11 4.85998C11.7425 4.85998 12.4777 4.99293 13.1637 5.25124C13.8497 5.50955 14.473 5.88816 14.998 6.36545C15.523 6.84275 15.9395 7.40938 16.2236 8.033C16.5078 8.65662 16.654 9.325 16.654 10C16.654 10.675 16.5078 11.3434 16.2236 11.967C15.9395 12.5906 15.523 13.1573 14.998 13.6345C13.9377 14.5985 12.4995 15.14 11 15.14C9.50046 15.14 8.06234 14.5985 7.002 13.6345C5.94166 12.6706 5.34597 11.3632 5.34597 10C5.34597 8.63678 5.94166 7.3294 7.002 6.36545ZM17.908 5.62545C18.0381 5.51388 18.1423 5.37971 18.2143 5.23089C18.2863 5.08206 18.3248 4.92161 18.3274 4.75903C18.33 4.59645 18.2967 4.43504 18.2295 4.28437C18.1622 4.1337 18.0624 3.99683 17.936 3.88185C17.8095 3.76688 17.6589 3.67614 17.4932 3.61502C17.3275 3.55389 17.1499 3.52361 16.9711 3.52598C16.7922 3.52835 16.6157 3.56332 16.452 3.62881C16.2883 3.69431 16.1407 3.789 16.018 3.90727C15.7793 4.1373 15.6486 4.44284 15.6537 4.75903C15.6588 5.07522 15.7992 5.37716 16.0452 5.60077C16.2911 5.82437 16.6233 5.95203 16.9711 5.95664C17.3189 5.96125 17.655 5.84245 17.908 5.62545Z" fill="white"/>
</svg>
