<svg width="22" height="15" viewBox="0 0 22 15" fill="none" xmlns="http://www.w3.org/2000/svg">
<g opacity="0.6">
<path d="M21.5561 2.69099C21.4361 2.26288 21.2023 1.8753 20.8796 1.56944C20.5478 1.25417 20.1412 1.02866 19.698 0.914174C18.0396 0.477035 11.395 0.477035 11.395 0.477035C8.62502 0.44552 5.85568 0.584134 3.10265 0.892096C2.6595 1.01504 2.2536 1.24559 1.92105 1.56326C1.5943 1.87765 1.35763 2.26533 1.23399 2.69011C0.936997 4.29007 0.792696 5.91464 0.803035 7.5419C0.792438 9.16771 0.936385 10.7917 1.23399 12.3937C1.35498 12.8167 1.59077 13.2026 1.9184 13.5144C2.24603 13.8261 2.65403 14.0513 3.10265 14.1705C4.78321 14.6068 11.395 14.6068 11.395 14.6068C14.1686 14.6383 16.9415 14.4997 19.698 14.1917C20.1412 14.0772 20.5478 13.8517 20.8796 13.5364C21.2064 13.2247 21.4386 12.837 21.5552 12.4149C21.86 10.8155 22.0081 9.19031 21.9976 7.56221C22.0206 5.92723 21.8726 4.29433 21.5561 2.69011V2.69099ZM9.28264 10.5657V4.51902L14.8109 7.54279L9.28264 10.5657Z" fill="white"/>
</g>
</svg>
