<svg width="40" height="40" viewBox="0 0 40 40" fill="none" xmlns="http://www.w3.org/2000/svg">
<path d="M27.6967 32.7214L26.6365 24.233C26.4862 23.0306 25.9019 21.9246 24.9934 21.1229C24.0849 20.3211 22.9148 19.8789 21.7031 19.8794H18.0519C16.8408 19.8797 15.6715 20.3223 14.7637 21.124C13.8559 21.9256 13.2721 23.0312 13.1219 24.233L12.06 32.7214C12.0017 33.1877 12.0433 33.6612 12.182 34.1102C12.3208 34.5592 12.5534 34.9736 12.8646 35.3259C13.1758 35.6781 13.5583 35.9601 13.9868 36.1531C14.4154 36.3461 14.88 36.4458 15.35 36.4454H24.4083C24.8782 36.4455 25.3427 36.3457 25.771 36.1526C26.1993 35.9594 26.5816 35.6774 26.8926 35.3252C27.2036 34.973 27.4361 34.5587 27.5747 34.1098C27.7134 33.6609 27.7549 33.1876 27.6967 32.7214V32.7214Z" stroke="#D6C21A" stroke-width="2.14084" stroke-linecap="round" stroke-linejoin="round"/>
<path d="M19.8792 13.2529C22.624 13.2529 24.849 11.0278 24.849 8.28304C24.849 5.53829 22.624 3.31323 19.8792 3.31323C17.1345 3.31323 14.9094 5.53829 14.9094 8.28304C14.9094 11.0278 17.1345 13.2529 19.8792 13.2529Z" stroke="#D6C21A" stroke-width="2.14084" stroke-linecap="round" stroke-linejoin="round"/>
<path d="M6.62644 18.2229C8.45627 18.2229 9.93965 16.7395 9.93965 14.9096C9.93965 13.0798 8.45627 11.5964 6.62644 11.5964C4.79661 11.5964 3.31323 13.0798 3.31323 14.9096C3.31323 16.7395 4.79661 18.2229 6.62644 18.2229Z" stroke="#D6C21A" stroke-width="2.14084" stroke-linecap="round" stroke-linejoin="round"/>
<path d="M33.1318 18.2229C34.9616 18.2229 36.445 16.7395 36.445 14.9096C36.445 13.0798 34.9616 11.5964 33.1318 11.5964C31.302 11.5964 29.8186 13.0798 29.8186 14.9096C29.8186 16.7395 31.302 18.2229 33.1318 18.2229Z" stroke="#D6C21A" stroke-width="2.14084" stroke-linecap="round" stroke-linejoin="round"/>
<path d="M6.62634 23.1926H6.11941C5.33512 23.1925 4.57621 23.4707 3.97772 23.9775C3.37922 24.4844 2.97995 25.1872 2.85094 25.9608L2.29929 29.274C2.22012 29.7487 2.24532 30.235 2.37312 30.6989C2.50092 31.1629 2.72827 31.5934 3.03934 31.9606C3.35041 32.3278 3.73774 32.6229 4.17439 32.8252C4.61103 33.0275 5.08652 33.1323 5.56777 33.1322H11.5961" stroke="#D6C21A" stroke-width="2.14084" stroke-linecap="round" stroke-linejoin="round"/>
<path d="M33.1319 23.1926H33.6388C34.4231 23.1925 35.182 23.4707 35.7805 23.9775C36.379 24.4844 36.7783 25.1872 36.9073 25.9608L37.459 29.274C37.5381 29.7487 37.5129 30.235 37.3851 30.6989C37.2573 31.1629 37.03 31.5934 36.7189 31.9606C36.4078 32.3278 36.0205 32.6229 35.5839 32.8252C35.1472 33.0275 34.6717 33.1323 34.1905 33.1322H28.1621" stroke="#D6C21A" stroke-width="2.14084" stroke-linecap="round" stroke-linejoin="round"/>
</svg>
