<svg width="32" height="22" viewBox="0 0 32 22" fill="none" xmlns="http://www.w3.org/2000/svg">
<g opacity="0.6">
<path d="M31.3299 3.34883C31.1488 2.70256 30.7959 2.11745 30.3087 1.65572C29.8079 1.17979 29.194 0.839347 28.525 0.666522C26.0213 0.00661082 15.9907 0.00661096 15.9907 0.00661096C11.809 -0.0409658 7.62837 0.168289 3.47236 0.633193C2.80337 0.818786 2.19061 1.16684 1.6886 1.64639C1.19533 2.12099 0.838044 2.70625 0.651402 3.34749C0.203053 5.76283 -0.0147857 8.2153 0.0008228 10.6718C-0.015175 13.1262 0.202129 15.5778 0.651402 17.9962C0.834044 18.6348 1.19 19.2174 1.6846 19.688C2.1792 20.1586 2.79511 20.4985 3.47236 20.6785C6.00935 21.3371 15.9907 21.3371 15.9907 21.3371C20.1777 21.3847 24.3636 21.1755 28.525 20.7105C29.194 20.5377 29.8079 20.1972 30.3087 19.7213C30.802 19.2507 31.1526 18.6654 31.3286 18.0282C31.7887 15.6138 32.0124 13.1603 31.9965 10.7025C32.0311 8.23431 31.8077 5.76925 31.3299 3.34749V3.34883ZM12.8018 15.2366V6.10846L21.1473 10.6732L12.8018 15.2366Z" fill="white"/>
</g>
</svg>
