<svg width="35" height="17" viewBox="0 0 35 17" fill="none" xmlns="http://www.w3.org/2000/svg">
<path d="M13.9247 11.8812C13.9247 13.1379 12.8965 14.1662 11.6397 14.1662H4.78473C3.52798 14.1662 2.49973 13.1379 2.49973 11.8812V5.02617C2.49973 3.76942 3.52798 2.74117 4.78473 2.74117H11.6397C12.8965 2.74117 13.9247 3.76942 13.9247 5.02617V11.8812ZM16.2097 5.02617C16.1412 2.48982 14.0847 0.456171 11.6397 0.456171H4.78473C2.22553 0.456171 0.214732 2.60407 0.214732 5.02617V11.8812C0.214732 14.4632 2.33978 16.4512 4.78473 16.4512H11.6397C14.1989 16.4512 16.2097 14.3033 16.2097 11.8812V5.02617ZM24.899 9.59617H29.469C30.7257 9.59617 31.754 10.6244 31.754 11.8812C31.754 13.1379 30.7257 14.1662 29.469 14.1662H22.614C21.3572 14.1662 20.329 13.1379 20.329 11.8812H18.044C18.1125 14.4632 20.1233 16.4512 22.614 16.4512H29.469C32.0282 16.4512 34.039 14.3033 34.039 11.8812C34.039 10.5102 33.5134 9.36767 32.4852 8.45367C33.5134 7.53967 34.039 6.39717 34.039 5.02617C34.039 2.48982 31.8682 0.456171 29.469 0.456171H22.614C20.0548 0.456171 18.044 2.60407 18.044 5.02617H20.329C20.329 3.76942 21.3572 2.74117 22.614 2.74117H29.469C30.7257 2.74117 31.754 3.76942 31.754 5.02617C31.754 6.28292 30.7257 7.31117 29.469 7.31117H24.899V9.59617Z" fill="#D6C21A"/>
</svg>
