<svg width="35" height="17" viewBox="0 0 35 17" fill="none" xmlns="http://www.w3.org/2000/svg">
<path d="M14.5429 11.8809C14.5429 13.1377 13.5146 14.1659 12.2579 14.1659H5.4029C4.14615 14.1659 3.1179 13.1377 3.1179 11.8809V5.02593C3.1179 3.76918 4.14615 2.74093 5.4029 2.74093H12.2579C13.5146 2.74093 14.5429 3.76918 14.5429 5.02593V11.8809ZM16.8279 5.02593C16.7593 2.48958 14.7028 0.455926 12.2579 0.455926H5.4029C2.8437 0.455926 0.832896 2.60383 0.832896 5.02593V11.8809C0.832896 14.463 2.95795 16.4509 5.4029 16.4509H12.2579C14.8171 16.4509 16.8279 14.303 16.8279 11.8809V5.02593ZM20.9471 13.0234C20.9471 11.7667 21.9754 10.7384 23.2321 10.7384H30.0871C32.6463 10.7384 34.6571 8.59053 34.6571 6.16843V5.02593C34.6571 2.48958 32.4864 0.455926 30.0871 0.455926H23.2321C20.6729 0.455926 18.6621 2.60383 18.6621 5.02593H20.9471C20.9471 3.76918 21.9754 2.74093 23.2321 2.74093H30.0871C31.3439 2.74093 32.3721 3.76918 32.3721 5.02593V6.16843C32.3721 7.42518 31.3439 8.45343 30.0871 8.45343H23.2321C20.6729 8.45343 18.6621 10.6013 18.6621 13.0234V16.4509H34.6571V14.1659H20.9471V13.0234Z" fill="#D6C21A"/>
</svg>
