<svg width="35" height="17" viewBox="0 0 35 17" fill="none" xmlns="http://www.w3.org/2000/svg">
<path d="M13.702 11.8809C13.702 13.1377 12.6738 14.1659 11.417 14.1659H4.56204C3.30529 14.1659 2.27704 13.1377 2.27704 11.8809V5.02593C2.27704 3.76918 3.30529 2.74093 4.56204 2.74093H11.417C12.6738 2.74093 13.702 3.76918 13.702 5.02593V11.8809ZM15.987 5.02593C15.9185 2.48958 13.862 0.455926 11.417 0.455926H4.56204C2.00284 0.455926 -0.00795884 2.60383 -0.00795884 5.02593V11.8809C-0.00795884 14.463 2.11709 16.4509 4.56204 16.4509H11.417C13.9762 16.4509 15.987 14.303 15.987 11.8809V5.02593ZM33.1308 2.74093V0.455926H18.7353V8.68193H29.4748C30.7315 8.68193 31.7598 9.71018 31.7598 10.9669V11.8809C31.7598 13.1377 30.7315 14.1659 29.4748 14.1659H22.6198C21.363 14.1659 20.3348 13.1377 20.3348 11.8809H18.0498C18.1183 14.463 20.1291 16.4509 22.6198 16.4509H29.4748C32.034 16.4509 34.0448 14.303 34.0448 11.8809V10.9669C34.0448 8.43058 31.874 6.39693 29.4748 6.39693H21.0203V2.74093H33.1308Z" fill="#D6C21A"/>
</svg>
