<svg width="35" height="17" viewBox="0 0 35 17" fill="none" xmlns="http://www.w3.org/2000/svg">
<path d="M14.2974 12.1727C14.2974 13.4294 13.2692 14.4577 12.0124 14.4577H5.15742C3.90067 14.4577 2.87242 13.4294 2.87242 12.1727V5.31768C2.87242 4.06093 3.90067 3.03268 5.15742 3.03268H12.0124C13.2692 3.03268 14.2974 4.06093 14.2974 5.31768V12.1727ZM16.5824 5.31768C16.5139 2.78133 14.4574 0.747674 12.0124 0.747674H5.15742C2.59822 0.747674 0.58742 2.89558 0.58742 5.31768V12.1727C0.58742 14.7547 2.71247 16.7427 5.15742 16.7427H12.0124C14.5716 16.7427 16.5824 14.5948 16.5824 12.1727V5.31768ZM18.1882 14.4577H29.6132V16.7427H31.8982V14.4577H34.1832V12.1727H31.8982V0.747674H29.6132L18.1882 12.1727V14.4577ZM29.6132 12.1727H21.41L29.6132 3.96953V12.1727Z" fill="#D6C21A"/>
</svg>
