<svg width="25" height="17" viewBox="0 0 25 17" fill="none" xmlns="http://www.w3.org/2000/svg">
<path d="M14.5199 11.8809C14.5199 13.1377 13.4916 14.1659 12.2349 14.1659H5.37986C4.12311 14.1659 3.09486 13.1377 3.09486 11.8809V5.02593C3.09486 3.76918 4.12311 2.74093 5.37986 2.74093H12.2349C13.4916 2.74093 14.5199 3.76918 14.5199 5.02593V11.8809ZM16.8049 5.02593C16.7363 2.48958 14.6798 0.455926 12.2349 0.455926H5.37986C2.82066 0.455926 0.809865 2.60383 0.809865 5.02593V11.8809C0.809865 14.463 2.93491 16.4509 5.37986 16.4509H12.2349C14.7941 16.4509 16.8049 14.303 16.8049 11.8809V5.02593ZM17.9536 5.02593V7.31093H18.8905L22.5236 3.67778V16.4509H24.8086V0.455926H22.5236L17.9536 5.02593Z" fill="#D6C21A"/>
</svg>
