<svg width="35" height="17" viewBox="0 0 35 17" fill="none" xmlns="http://www.w3.org/2000/svg">
<path d="M14.4491 11.8809C14.4491 13.1377 13.4209 14.1659 12.1641 14.1659H5.30915C4.0524 14.1659 3.02415 13.1377 3.02415 11.8809V5.02593C3.02415 3.76918 4.0524 2.74093 5.30915 2.74093H12.1641C13.4209 2.74093 14.4491 3.76918 14.4491 5.02593V11.8809ZM16.7341 5.02593C16.6656 2.48958 14.6091 0.455926 12.1641 0.455926H5.30915C2.74995 0.455926 0.739146 2.60383 0.739146 5.02593V11.8809C0.739146 14.463 2.8642 16.4509 5.30915 16.4509H12.1641C14.7233 16.4509 16.7341 14.303 16.7341 11.8809V5.02593ZM29.9934 9.59593C31.2501 9.59593 32.2784 10.6242 32.2784 11.8809C32.2784 13.1377 31.2501 14.1659 29.9934 14.1659H23.1384C21.8816 14.1659 20.8534 13.1377 20.8534 11.8809V9.59593H29.9934ZM20.8534 5.02593C20.8534 3.76918 21.8816 2.74093 23.1384 2.74093H29.9934C31.2501 2.74093 32.2784 3.76918 32.2784 5.02593H34.5634C34.4948 2.48958 32.4383 0.455926 29.9934 0.455926H23.1384C20.5792 0.455926 18.5684 2.60383 18.5684 5.02593V11.8809C18.5684 14.463 20.6934 16.4509 23.1384 16.4509H29.9934C32.5526 16.4509 34.5634 14.303 34.5634 11.8809C34.5634 10.6242 34.1064 9.55023 33.2152 8.65908C32.3241 7.76793 31.2501 7.31093 29.9934 7.31093H20.8534V5.02593Z" fill="#D6C21A"/>
</svg>
