<svg width="81" height="34" viewBox="0 0 81 34" fill="none" xmlns="http://www.w3.org/2000/svg">
<path d="M0.339355 9.6V14.4H2.30736L9.93936 6.768V33.6H14.7394V0H9.93936L0.339355 9.6Z" fill="#D6C21A"/>
<path d="M51.2362 4.8V0H20.9962V17.28H43.5562C46.1962 17.28 48.3562 19.44 48.3562 22.08V24C48.3562 26.64 46.1962 28.8 43.5562 28.8H29.1562C26.5162 28.8 24.3562 26.64 24.3562 24H19.5562C19.7002 29.424 23.9242 33.6 29.1562 33.6H43.5562C48.9322 33.6 53.1562 29.088 53.1562 24V22.08C53.1562 16.752 48.5962 12.48 43.5562 12.48H25.7962V4.8H51.2362Z" fill="#D6C21A"/>
<path d="M70.4381 28.8V19.2H80.0381V14.4H70.4381V4.8H65.6381V14.4H56.0381V19.2H65.6381V28.8H70.4381Z" fill="#D6C21A"/>
</svg>
