<svg width="99" height="34" viewBox="0 0 99 34" fill="none" xmlns="http://www.w3.org/2000/svg">
<path d="M31.7832 4.8V0H1.54315V17.28H24.1031C26.7431 17.28 28.9032 19.44 28.9032 22.08V24C28.9032 26.64 26.7431 28.8 24.1031 28.8H9.70315C7.06315 28.8 4.90315 26.64 4.90315 24H0.103149C0.24715 29.424 4.47115 33.6 9.70315 33.6H24.1031C29.4792 33.6 33.7032 29.088 33.7032 24V22.08C33.7032 16.752 29.1432 12.48 24.1031 12.48H6.34315V4.8H31.7832Z" fill="#D6C21A"/>
<path d="M66.345 24C66.345 26.64 64.185 28.8 61.545 28.8H47.145C44.505 28.8 42.345 26.64 42.345 24V9.6C42.345 6.96 44.505 4.8 47.145 4.8H61.545C64.185 4.8 66.345 6.96 66.345 9.6V24ZM71.145 9.6C71.001 4.272 66.681 0 61.545 0H47.145C41.769 0 37.545 4.512 37.545 9.6V24C37.545 29.424 42.009 33.6 47.145 33.6H61.545C66.921 33.6 71.145 29.088 71.145 24V9.6Z" fill="#D6C21A"/>
<path d="M88.4381 28.8V19.2H98.0382V14.4H88.4381V4.8H83.6382V14.4H74.0381V19.2H83.6382V28.8H88.4381Z" fill="#D6C21A"/>
</svg>
