<svg width="65" height="65" viewBox="0 0 65 65" fill="none" xmlns="http://www.w3.org/2000/svg">
<path d="M45.2806 53.495L43.5472 39.6175C43.3016 37.6519 42.3463 35.8437 40.861 34.5329C39.3757 33.2222 37.4628 32.4992 35.4818 32.5H29.5127C27.5327 32.5006 25.621 33.2241 24.1368 34.5347C22.6527 35.8453 21.6982 37.6528 21.4527 39.6175L19.7166 53.495C19.6213 54.2574 19.6894 55.0314 19.9162 55.7655C20.143 56.4997 20.5233 57.1771 21.0321 57.753C21.5408 58.3288 22.1662 58.7898 22.8668 59.1054C23.5673 59.421 24.327 59.5839 25.0954 59.5833H39.9045C40.6727 59.5835 41.432 59.4203 42.1323 59.1046C42.8325 58.7888 43.4576 58.3277 43.966 57.7519C44.4744 57.1762 44.8546 56.4988 45.0812 55.7649C45.3079 55.031 45.3758 54.2572 45.2806 53.495V53.495Z" stroke="#D6C21A" stroke-width="3.5" stroke-linecap="round" stroke-linejoin="round"/>
<path d="M32.5 21.6667C36.9873 21.6667 40.625 18.0291 40.625 13.5417C40.625 9.05443 36.9873 5.41675 32.5 5.41675C28.0127 5.41675 24.375 9.05443 24.375 13.5417C24.375 18.0291 28.0127 21.6667 32.5 21.6667Z" stroke="#D6C21A" stroke-width="3.5" stroke-linecap="round" stroke-linejoin="round"/>
<path d="M10.8333 29.7916C13.8248 29.7916 16.25 27.3665 16.25 24.3749C16.25 21.3834 13.8248 18.9583 10.8333 18.9583C7.84175 18.9583 5.41663 21.3834 5.41663 24.3749C5.41663 27.3665 7.84175 29.7916 10.8333 29.7916Z" stroke="#D6C21A" stroke-width="3.5" stroke-linecap="round" stroke-linejoin="round"/>
<path d="M54.1667 29.7916C57.1582 29.7916 59.5833 27.3665 59.5833 24.3749C59.5833 21.3834 57.1582 18.9583 54.1667 18.9583C51.1751 18.9583 48.75 21.3834 48.75 24.3749C48.75 27.3665 51.1751 29.7916 54.1667 29.7916Z" stroke="#D6C21A" stroke-width="3.5" stroke-linecap="round" stroke-linejoin="round"/>
<path d="M10.8333 37.9167H10.0045C8.72228 37.9166 7.48157 38.3713 6.50311 39.2C5.52465 40.0287 4.8719 41.1776 4.66097 42.4424L3.75909 47.859C3.62967 48.6351 3.67086 49.43 3.8798 50.1886C4.08874 50.9471 4.46042 51.651 4.96898 52.2513C5.47754 52.8516 6.11078 53.334 6.82464 53.6648C7.5385 53.9955 8.31586 54.1668 9.10264 54.1667H18.9583" stroke="#D6C21A" stroke-width="3.5" stroke-linecap="round" stroke-linejoin="round"/>
<path d="M54.1666 37.9167H54.9954C56.2776 37.9166 57.5183 38.3713 58.4968 39.2C59.4752 40.0287 60.128 41.1776 60.3389 42.4424L61.2408 47.859C61.3702 48.6351 61.329 49.43 61.1201 50.1886C60.9111 50.9471 60.5395 51.651 60.0309 52.2513C59.5223 52.8516 58.8891 53.334 58.1752 53.6648C57.4614 53.9955 56.684 54.1668 55.8973 54.1667H46.0416" stroke="#D6C21A" stroke-width="3.5" stroke-linecap="round" stroke-linejoin="round"/>
</svg>
