<svg width="65" height="65" viewBox="0 0 65 65" fill="none" xmlns="http://www.w3.org/2000/svg">
<path d="M32.5 32.5001C39.9789 32.5001 46.0417 26.4373 46.0417 18.9584C46.0417 11.4796 39.9789 5.41675 32.5 5.41675C25.0212 5.41675 18.9584 11.4796 18.9584 18.9584C18.9584 26.4373 25.0212 32.5001 32.5 32.5001Z" stroke="#D6C21A" stroke-width="3.5" stroke-linecap="round" stroke-linejoin="round"/>
<path d="M46.0418 59.5834H14.2622C13.4941 59.5836 12.7347 59.4204 12.0345 59.1046C11.3342 58.7889 10.7091 58.3278 10.2007 57.752C9.6923 57.1762 9.31215 56.4989 9.08551 55.765C8.85887 55.031 8.79092 54.2573 8.88617 53.4951L9.94242 45.0342C10.1881 43.0686 11.1433 41.2604 12.6286 39.9497C14.1139 38.6389 16.0269 37.916 18.0078 37.9167H18.9585" stroke="#D6C21A" stroke-width="3.5" stroke-linecap="round" stroke-linejoin="round"/>
<path d="M43.3334 43.3334L49.4271 48.7501L59.5834 37.9167" stroke="#D6C21A" stroke-width="3.5" stroke-linecap="round" stroke-linejoin="round"/>
</svg>
