<svg width="39" height="39" viewBox="0 0 39 39" fill="none" xmlns="http://www.w3.org/2000/svg">
<g opacity="0.7">
<path d="M1.27902 33.5047H15.0842V37.8251C15.0842 38.088 15.2974 38.3011 15.5603 38.3011H38.4103C38.6732 38.3011 38.8863 38.088 38.8863 37.8251V5.49026C38.8863 5.22737 38.6732 5.01422 38.4103 5.01422H35.4378V2.68073C35.4378 1.32257 34.3328 0.217773 32.9746 0.217773H29.6209C28.2628 0.217773 27.1577 1.32257 27.1577 2.68073V5.13695H24.6051V0.693815C24.6051 0.430923 24.3919 0.217773 24.129 0.217773H1.27902C1.01613 0.217773 0.802979 0.430923 0.802979 0.693815V33.0286C0.802979 33.2915 1.01613 33.5047 1.27902 33.5047ZM22.2954 33.5047L16.0363 36.9891V33.5047H22.2954ZM33.0313 31.376H29.5642L28.3 28.7677H34.2955L33.0313 31.376ZM32.5698 32.328L31.4172 34.7059C31.3322 34.7845 31.2634 34.7845 31.1783 34.7059L30.0257 32.328H32.5698ZM28.1098 27.8156V8.36092H34.4857V27.8156H28.1098ZM34.4857 7.40884H28.1098V5.04397H34.4857V7.40884ZM29.6209 1.16986H32.9746C33.8079 1.16986 34.4857 1.84766 34.4857 2.68073V4.09189H28.1098V2.68073C28.1098 1.84766 28.7876 1.16986 29.6209 1.16986ZM27.1577 6.08903V28.4846C27.1577 28.5564 27.174 28.6276 27.2054 28.6922L30.3485 35.1766C30.3622 35.2047 30.3785 35.2315 30.3975 35.2566C30.6128 35.5409 30.941 35.704 31.2978 35.704C31.6546 35.704 31.9828 35.5409 32.198 35.2566C32.2171 35.2315 32.2333 35.2047 32.2471 35.1766L35.3901 28.6922C35.4215 28.6276 35.4378 28.5564 35.4378 28.4846V5.9663H37.9342V37.349H17.3467L24.3605 33.4445C24.3791 33.4341 24.3904 33.4171 24.407 33.4047C24.4341 33.3847 24.4602 33.3655 24.4824 33.3403C24.5027 33.3173 24.5172 33.2922 24.5325 33.2661C24.548 33.2398 24.5631 33.2147 24.5734 33.1855C24.5845 33.1541 24.5884 33.1223 24.5928 33.0893C24.5956 33.0686 24.6051 33.0501 24.6051 33.0286V6.08903H27.1577ZM1.75506 1.16986H23.653V32.5526H1.75506V1.16986Z" fill="white"/>
<path d="M20.936 12.1356C21.1989 12.1356 21.4121 11.9224 21.4121 11.6595C21.4121 11.3966 21.1989 11.1835 20.936 11.1835H18.0714V7.67965C18.0714 7.41676 17.8583 7.20361 17.5954 7.20361C17.3325 7.20361 17.1193 7.41676 17.1193 7.67965V11.1835H13.1801V7.67965C13.1801 7.41676 12.967 7.20361 12.7041 7.20361C12.4412 7.20361 12.228 7.41676 12.228 7.67965V11.1835H8.28908V7.67965C8.28908 7.41676 8.07593 7.20361 7.81304 7.20361C7.55015 7.20361 7.337 7.41676 7.337 7.67965V11.1835H4.47238C4.20949 11.1835 3.99634 11.3966 3.99634 11.6595C3.99634 11.9224 4.20949 12.1356 4.47238 12.1356H7.337V16.3853H4.47238C4.20949 16.3853 3.99634 16.5985 3.99634 16.8614C3.99634 17.1242 4.20949 17.3374 4.47238 17.3374H7.337V21.5869H4.47238C4.20949 21.5869 3.99634 21.8001 3.99634 22.0629C3.99634 22.3258 4.20949 22.539 4.47238 22.539H7.337V26.0428C7.337 26.3057 7.55015 26.5189 7.81304 26.5189C8.07593 26.5189 8.28908 26.3057 8.28908 26.0428V22.539H12.228V26.0428C12.228 26.3057 12.4412 26.5189 12.7041 26.5189C12.967 26.5189 13.1801 26.3057 13.1801 26.0428V22.539H17.1193V26.0428C17.1193 26.3057 17.3325 26.5189 17.5954 26.5189C17.8583 26.5189 18.0714 26.3057 18.0714 26.0428V22.539H20.936C21.1989 22.539 21.4121 22.3258 21.4121 22.0629C21.4121 21.8001 21.1989 21.5869 20.936 21.5869H18.0714V17.3374H20.936C21.1989 17.3374 21.4121 17.1242 21.4121 16.8614C21.4121 16.5985 21.1989 16.3853 20.936 16.3853H18.0714V12.1356H20.936ZM8.28908 12.1356H12.228V16.3853H8.28908V12.1356ZM8.28908 21.5869V17.3374H12.228V21.5869H8.28908ZM17.1193 21.5869H13.1801V17.3374H17.1193V21.5869ZM17.1193 16.3853H13.1801V12.1356H17.1193V16.3853Z" fill="white"/>
</g>
</svg>
