<svg width="35" height="39" viewBox="0 0 35 39" fill="none" xmlns="http://www.w3.org/2000/svg">
<g opacity="0.7">
<path d="M34.9706 36.9383C34.9706 30.3946 30.9182 27.0767 22.9259 27.0767H22.5844V24.036C25.391 22.373 27.19 19.3854 27.2684 16.0537C28.1016 15.5992 28.6377 14.7206 28.6377 13.7399V13.255C28.6377 12.5548 28.235 11.9539 27.6583 11.6721C27.5622 7.0709 24.7976 2.05938 20.3547 1.58764C20.0583 0.790337 19.2962 0.217773 18.397 0.217773H16.8373C15.94 0.217773 15.179 0.787751 14.8812 1.58235C10.8 1.99044 7.76247 7.09277 7.64305 11.649C7.04329 11.9211 6.62237 12.5376 6.62237 13.255V13.7766C6.62237 14.754 7.1614 15.6431 7.9943 16.0963C8.08577 19.366 9.83184 22.3029 12.5761 23.9754V27.0767H12.1787C4.18893 27.0767 0.137695 30.3932 0.137695 36.9339V37.8251C0.137695 38.088 0.350845 38.3011 0.613737 38.3011H34.4945C34.7574 38.3011 34.9706 38.088 34.9706 37.8251V36.9383ZM25.3091 28.1465C24.8944 31.9236 25.7622 32.8484 27.1944 33.9998C27.4166 34.1785 27.65 34.3656 27.8878 34.5827C29.0635 35.6564 29.2864 36.2435 29.2864 36.9518V37.349H18.0929V36.3702C18.0929 35.5557 18.5257 34.8196 19.1959 34.4949C21.4436 33.4042 22.8347 30.33 22.8347 28.1071C22.8347 28.0807 22.8322 28.055 22.8314 28.0288H22.9259C23.7717 28.0288 24.5614 28.0714 25.3091 28.1465ZM17.5776 29.4437C19.062 29.4437 20.5471 29.0457 21.8731 28.2494L21.8773 28.2469C21.8205 30.1781 20.5926 32.7589 18.7803 33.6381C18.2986 33.8717 17.902 34.2452 17.6181 34.6996C17.3359 34.2456 16.9419 33.8724 16.4635 33.6388C14.6827 32.7689 13.4703 30.233 13.3902 28.3084C14.6884 29.0626 16.1318 29.4437 17.5776 29.4437ZM7.57445 13.255C7.57445 12.8117 7.91173 12.4512 8.3264 12.4512H10.7687C11.0316 12.4512 11.2447 12.2381 11.2447 11.9752C11.2447 11.7123 11.0316 11.4991 10.7687 11.4991H8.59888C8.76979 7.48598 11.3133 3.07585 14.7425 2.55818V2.8618C14.7425 3.1247 14.9557 3.33785 15.2185 3.33785C15.4814 3.33785 15.6946 3.1247 15.6946 2.8618V2.31254C15.6946 1.68239 16.2071 1.16986 16.8373 1.16986H18.397C19.0271 1.16986 19.5396 1.68239 19.5396 2.31254V2.8618C19.5396 3.1247 19.7528 3.33785 20.0157 3.33785C20.2786 3.33785 20.4917 3.1247 20.4917 2.8618V2.57407C24.2158 3.13742 26.5435 7.45251 26.6956 11.4991H22.3587C22.0958 11.4991 21.8827 11.7123 21.8827 11.9752C21.8827 12.2381 22.0958 12.4512 22.3587 12.4512H26.9336C27.3483 12.4512 27.6856 12.8117 27.6856 13.255V13.7399C27.6856 14.4693 27.2256 15.1122 26.5408 15.3393C23.7162 16.2774 16.3203 18.1577 8.6653 15.3595C8.01284 15.1213 7.57445 14.4851 7.57445 13.7766V13.255ZM8.96114 16.4638C11.854 17.4322 14.6931 17.783 17.2612 17.783C21.1445 17.7828 24.4043 17.0005 26.3018 16.4148C26.0647 19.8977 23.7357 22.9076 20.3578 24.011C20.3325 24.0189 17.8086 24.7758 14.9106 24.0133C11.5414 22.9129 9.2166 19.9261 8.96114 16.4638ZM14.6414 24.9261C15.725 25.2118 16.7494 25.3071 17.6355 25.3071C19.3655 25.3071 20.5673 24.9429 20.6463 24.9185C20.9861 24.8075 21.3125 24.6732 21.6323 24.5287V27.2833L21.3829 27.4333C19.0222 28.8509 16.0939 28.843 13.7409 27.4142L13.5282 27.285V24.4787C13.8875 24.6465 14.2562 24.8004 14.6414 24.9261ZM12.4338 28.0288C12.4329 28.055 12.4304 28.0807 12.4304 28.1071C12.4304 30.3295 13.8125 33.4033 16.0456 34.4942C16.7111 34.8191 17.1408 35.5555 17.1408 36.3702V37.349H6.18654V36.9518C6.18654 36.2435 6.40945 35.6561 7.58491 34.5827C7.82409 34.3642 8.05909 34.1762 8.28317 33.9965C9.72303 32.8414 10.5941 31.9146 10.1721 28.116C10.8104 28.0635 11.4717 28.0288 12.1787 28.0288H12.4338ZM1.08978 36.9339C1.08978 31.7973 3.76423 28.9304 9.2254 28.2144C9.61431 31.6963 8.84231 32.3274 7.68742 33.2539C7.44847 33.4454 7.19813 33.6467 6.94291 33.8798C5.69748 35.0169 5.23446 35.8495 5.23446 36.9518V37.349H1.08978V36.9339ZM34.0185 37.349H30.2385V36.9518C30.2385 35.8498 29.7755 35.0172 28.5298 33.8798C28.2762 33.6483 28.028 33.4482 27.7911 33.2578C26.6451 32.3368 25.8775 31.7081 26.2531 28.269C31.4635 29.0663 34.0185 31.918 34.0185 36.9383V37.349Z" fill="white"/>
<path d="M12.6286 12.3959H20.4954C20.7583 12.3959 20.9714 12.1828 20.9714 11.9199C20.9714 11.657 20.7583 11.4438 20.4954 11.4438H18.0301V3.81112C18.0301 3.54823 17.817 3.33508 17.5541 3.33508C17.2912 3.33508 17.078 3.54823 17.078 3.81112V11.4438H12.6286C12.3657 11.4438 12.1526 11.657 12.1526 11.9199C12.1526 12.1828 12.3657 12.3959 12.6286 12.3959Z" fill="white"/>
</g>
</svg>
