<svg width="20" height="19" viewBox="0 0 20 19" fill="none" xmlns="http://www.w3.org/2000/svg">
<path opacity="0.8" d="M2.25926 0H17.9927C18.7685 0 19.3974 0.628936 19.3974 1.40477V17.1382C19.3974 17.914 18.7685 18.5429 17.9927 18.5429H2.25926C1.48343 18.5429 0.854492 17.914 0.854492 17.1382V1.40477C0.854492 0.628936 1.48343 0 2.25926 0ZM13.2165 5.61908H10.6879C10.5327 5.61908 10.4069 5.49329 10.4069 5.33812C10.4069 5.18296 10.5327 5.05717 10.6879 5.05717H18.8355V1.40477C18.8355 0.939269 18.4582 0.561908 17.9927 0.561908H7.03547V5.33812C7.03547 5.49329 6.90969 5.61908 6.75452 5.61908C6.59935 5.61908 6.47357 5.49329 6.47357 5.33812V0.561908H2.25926C1.79376 0.561908 1.4164 0.939269 1.4164 1.40477V9.55243H6.47357V8.70957C6.47357 8.5544 6.59935 8.42861 6.75452 8.42861C6.90969 8.42861 7.03547 8.5544 7.03547 8.70957V10.9572C7.03547 11.1124 6.90969 11.2382 6.75452 11.2382C6.59935 11.2382 6.47357 11.1124 6.47357 10.9572V10.1143H1.4164V17.1382C1.4164 17.6037 1.79376 17.981 2.25926 17.981H6.47357V14.3286C6.47357 14.1735 6.59935 14.0477 6.75452 14.0477C6.90969 14.0477 7.03547 14.1735 7.03547 14.3286V17.981H13.2165V14.6096H10.6879C10.5327 14.6096 10.4069 14.4838 10.4069 14.3286C10.4069 14.1735 10.5327 14.0477 10.6879 14.0477H13.2165V12.081C13.2165 11.9258 13.3422 11.8001 13.4974 11.8001C13.6526 11.8001 13.7784 11.9258 13.7784 12.081V17.981H17.9927C18.4582 17.981 18.8355 17.6037 18.8355 17.1382V5.61908H13.7784V8.70957C13.7784 8.86473 13.6526 8.99052 13.4974 8.99052C13.3422 8.99052 13.2165 8.86473 13.2165 8.70957V5.61908Z" fill="white"/>
</svg>
