<svg width="21" height="20" viewBox="0 0 21 20" fill="none" xmlns="http://www.w3.org/2000/svg">
<g opacity="0.8">
<path d="M10.8284 16.0419H2.23962V8.68934H14.271V8.94668C14.271 9.03532 14.3062 9.12033 14.3689 9.183C14.4316 9.24568 14.5166 9.28089 14.6052 9.28089C14.6938 9.28089 14.7789 9.24568 14.8415 9.183C14.9042 9.12033 14.9394 9.03532 14.9394 8.94668V8.68934H16.2762C16.3359 8.68862 16.3944 8.67201 16.4456 8.64122C16.4967 8.61042 16.5388 8.56657 16.5674 8.51415C16.596 8.46172 16.6101 8.40263 16.6084 8.34294C16.6066 8.28325 16.5889 8.2251 16.5572 8.17449L14.7398 5.34729H17.9473V12.7665C17.8924 12.8093 17.8521 12.8679 17.8319 12.9345C17.8118 13.0011 17.8128 13.0722 17.8347 13.1382C17.8567 13.2042 17.8986 13.2618 17.9547 13.3029C18.0107 13.3441 18.0781 13.3669 18.1477 13.3682C18.3776 13.3965 18.6131 13.2936 18.6157 13.034V5.34728H19.9525C20.0122 5.34653 20.0706 5.3299 20.1218 5.2991C20.1729 5.2683 20.2149 5.22445 20.2436 5.17204C20.2722 5.11963 20.2863 5.06055 20.2845 5.00087C20.2828 4.94118 20.2651 4.88305 20.2335 4.83243L17.2256 0.153557C17.1954 0.106458 17.1538 0.0677105 17.1047 0.0408777C17.0556 0.014045 17.0006 -1.18135e-05 16.9446 7.4494e-09H7.25268C7.19674 -8.51312e-06 7.14169 0.014033 7.0926 0.0408358C7.0435 0.0676386 7.00192 0.106344 6.97167 0.1534L4.92116 3.34205H3.57643C3.52047 3.34204 3.46541 3.35609 3.4163 3.38293C3.3672 3.40976 3.32563 3.44851 3.29542 3.49561L0.287574 8.17448C0.255892 8.2251 0.238257 8.28324 0.236477 8.34293C0.234698 8.40262 0.24884 8.4617 0.27745 8.51412C0.30606 8.56654 0.348108 8.61039 0.399273 8.64118C0.450439 8.67197 0.508878 8.68859 0.56859 8.68932H1.5712V16.376C1.57119 16.4199 1.57983 16.4634 1.59662 16.5039C1.61341 16.5445 1.63803 16.5813 1.66906 16.6124C1.7001 16.6434 1.73695 16.668 1.7775 16.6848C1.81805 16.7016 1.86152 16.7103 1.90541 16.7102H10.8284C10.9158 16.7084 10.999 16.6723 11.0601 16.6099C11.1213 16.5474 11.1555 16.4635 11.1555 16.3761C11.1555 16.2886 11.1213 16.2047 11.0601 16.1422C10.999 16.0798 10.9158 16.0437 10.8284 16.0419ZM7.43514 0.668423H16.7622L19.3402 4.67888H14.3101L13.5494 3.49562C13.5192 3.44852 13.4776 3.40977 13.4285 3.38294C13.3794 3.35611 13.3243 3.34205 13.2684 3.34206H12.2658V2.33945C12.2658 2.29556 12.2571 2.25209 12.2404 2.21154C12.2236 2.17099 12.1989 2.13414 12.1679 2.1031C12.1369 2.07207 12.1 2.04745 12.0595 2.03066C12.0189 2.01387 11.9755 2.00523 11.9316 2.00524H9.92634C9.88245 2.00523 9.83898 2.01387 9.79843 2.03066C9.75788 2.04745 9.72103 2.07207 9.68999 2.1031C9.65896 2.13414 9.63434 2.17099 9.61755 2.21154C9.60076 2.25209 9.59212 2.29556 9.59213 2.33945V3.34206H5.71575L7.43514 0.668423ZM11.5974 3.34206H10.2605V2.67365H11.5974V3.34206ZM3.75888 4.01047H13.0859L15.664 8.02093H1.18087L3.75888 4.01047Z" fill="white"/>
<path d="M5.91558 9.69193C5.9156 9.64804 5.90696 9.60458 5.89017 9.56402C5.87338 9.52347 5.84876 9.48662 5.81772 9.45559C5.78669 9.42455 5.74984 9.39994 5.70929 9.38314C5.66873 9.36635 5.62527 9.35772 5.58138 9.35773H3.57615C3.53226 9.35772 3.48879 9.36635 3.44824 9.38314C3.40769 9.39994 3.37084 9.42455 3.3398 9.45559C3.30877 9.48662 3.28415 9.52347 3.26736 9.56402C3.25057 9.60458 3.24193 9.64804 3.24194 9.69193V11.363C3.24193 11.4068 3.25057 11.4503 3.26736 11.4909C3.28415 11.5314 3.30877 11.5683 3.3398 11.5993C3.37084 11.6303 3.40769 11.655 3.44824 11.6717C3.48879 11.6885 3.53226 11.6972 3.57615 11.6972H5.58138C5.62527 11.6972 5.66873 11.6885 5.70929 11.6717C5.74984 11.655 5.78669 11.6303 5.81772 11.5993C5.84876 11.5683 5.87338 11.5314 5.89017 11.4909C5.90696 11.4503 5.9156 11.4068 5.91558 11.363V9.69193ZM5.24717 11.0288H3.91035V10.0261H5.24717V11.0288Z" fill="white"/>
<path d="M5.58138 12.3656H3.57615C3.53226 12.3656 3.48879 12.3742 3.44824 12.391C3.40769 12.4078 3.37084 12.4324 3.3398 12.4635C3.30877 12.4945 3.28415 12.5313 3.26736 12.5719C3.25057 12.6124 3.24193 12.6559 3.24194 12.6998V14.3708C3.24193 14.4147 3.25057 14.4582 3.26736 14.4987C3.28415 14.5393 3.30877 14.5761 3.3398 14.6072C3.37084 14.6382 3.40769 14.6628 3.44824 14.6796C3.48879 14.6964 3.53226 14.705 3.57615 14.705H5.58138C5.62527 14.705 5.66873 14.6964 5.70929 14.6796C5.74984 14.6628 5.78669 14.6382 5.81772 14.6072C5.84876 14.5761 5.87338 14.5393 5.89017 14.4987C5.90696 14.4582 5.9156 14.4147 5.91558 14.3708V12.6998C5.9156 12.6559 5.90696 12.6124 5.89017 12.5719C5.87338 12.5313 5.84876 12.4945 5.81772 12.4635C5.78669 12.4324 5.74984 12.4078 5.70929 12.391C5.66873 12.3742 5.62527 12.3656 5.58138 12.3656ZM5.24717 14.0366H3.91035V13.034H5.24717V14.0366Z" fill="white"/>
<path d="M9.5921 9.69193C9.59211 9.64804 9.58347 9.60458 9.56668 9.56402C9.54989 9.52347 9.52527 9.48662 9.49424 9.45559C9.4632 9.42455 9.42635 9.39994 9.3858 9.38314C9.34525 9.36635 9.30178 9.35772 9.25789 9.35773H7.25266C7.20877 9.35772 7.16531 9.36635 7.12475 9.38314C7.0842 9.39994 7.04735 9.42455 7.01632 9.45559C6.98528 9.48662 6.96066 9.52347 6.94387 9.56402C6.92708 9.60458 6.91845 9.64804 6.91846 9.69193V11.363C6.91845 11.4068 6.92708 11.4503 6.94387 11.4909C6.96066 11.5314 6.98528 11.5683 7.01632 11.5993C7.04735 11.6303 7.0842 11.655 7.12475 11.6717C7.16531 11.6885 7.20877 11.6972 7.25266 11.6972H9.25789C9.30178 11.6972 9.34525 11.6885 9.3858 11.6717C9.42635 11.655 9.4632 11.6303 9.49424 11.5993C9.52527 11.5683 9.54989 11.5314 9.56668 11.4909C9.58347 11.4503 9.59211 11.4068 9.5921 11.363V9.69193ZM8.92369 11.0288H7.58687V10.0261H8.92369V11.0288Z" fill="white"/>
<path d="M9.25789 12.3656H7.25266C7.20877 12.3656 7.16531 12.3742 7.12475 12.391C7.0842 12.4078 7.04735 12.4324 7.01632 12.4635C6.98528 12.4945 6.96066 12.5313 6.94387 12.5719C6.92708 12.6124 6.91845 12.6559 6.91846 12.6998V14.3708C6.91845 14.4147 6.92708 14.4582 6.94387 14.4987C6.96066 14.5393 6.98528 14.5761 7.01632 14.6072C7.04735 14.6382 7.0842 14.6628 7.12475 14.6796C7.16531 14.6964 7.20877 14.705 7.25266 14.705H9.25789C9.30178 14.705 9.34525 14.6964 9.3858 14.6796C9.42635 14.6628 9.4632 14.6382 9.49424 14.6072C9.52527 14.5761 9.54989 14.5393 9.56668 14.4987C9.58347 14.4582 9.59211 14.4147 9.5921 14.3708V12.6998C9.59211 12.6559 9.58347 12.6124 9.56668 12.5719C9.54989 12.5313 9.52527 12.4945 9.49424 12.4635C9.4632 12.4324 9.42635 12.4078 9.3858 12.391C9.34525 12.3742 9.30178 12.3656 9.25789 12.3656ZM8.92369 14.0366H7.58687V13.034H8.92369V14.0366Z" fill="white"/>
<path d="M17.3312 14.2662C18.2192 11.3777 15.2781 8.66376 12.4685 9.79646C12.4169 9.8167 12.371 9.84949 12.3352 9.89187C12.2994 9.93426 12.2747 9.98489 12.2633 10.0392C12.2519 10.0935 12.2543 10.1498 12.2701 10.203C12.286 10.2562 12.3148 10.3046 12.354 10.3439L14.5192 12.509L13.1014 13.927L10.9363 11.7618C10.897 11.7225 10.8486 11.6937 10.7955 11.6778C10.7423 11.6619 10.686 11.6595 10.6316 11.6709C10.5773 11.6822 10.5266 11.707 10.4843 11.7428C10.4419 11.7787 10.4091 11.8245 10.3889 11.8762C9.25492 14.6859 11.9714 17.6275 14.8586 16.7387L17.3416 19.553C17.402 19.6214 17.4758 19.6768 17.5584 19.7156C17.641 19.7545 17.7308 19.776 17.822 19.7788C17.9133 19.7817 18.0041 19.7658 18.089 19.7322C18.1739 19.6985 18.251 19.6479 18.3155 19.5833L20.1755 17.7233C20.2401 17.6588 20.2907 17.5817 20.3243 17.4968C20.3579 17.412 20.3738 17.3211 20.371 17.2299C20.3682 17.1387 20.3468 17.049 20.308 16.9663C20.2692 16.8837 20.2139 16.8099 20.1455 16.7494L17.3312 14.2662ZM17.8429 19.1107L15.2137 16.131C15.1691 16.0805 15.1103 16.0447 15.0451 16.0282C14.9798 16.0116 14.9111 16.0152 14.8478 16.0383C12.6926 16.8718 10.3704 14.8767 10.8612 12.6319L12.8651 14.6359C12.929 14.6962 13.0135 14.7299 13.1014 14.7299C13.1893 14.7299 13.2738 14.6962 13.3377 14.6359L15.2281 12.7453C15.2591 12.7143 15.2837 12.6775 15.3005 12.6369C15.3173 12.5964 15.326 12.5529 15.326 12.5091C15.326 12.4652 15.3173 12.4217 15.3005 12.3812C15.2837 12.3406 15.2591 12.3038 15.2281 12.2728L13.2241 10.2688C13.7472 10.1692 14.2873 10.2096 14.7897 10.386C15.2921 10.5624 15.7388 10.8686 16.0847 11.2734C16.4306 11.6782 16.6633 12.1673 16.7592 12.691C16.8551 13.2148 16.8108 13.7546 16.6307 14.2557C16.6075 14.3189 16.6039 14.3876 16.6204 14.4529C16.6369 14.5181 16.6727 14.5769 16.7232 14.6215L19.7029 17.2507L17.8429 19.1107Z" fill="white"/>
</g>
</svg>
