<svg width="24" height="19" viewBox="0 0 24 19" fill="none" xmlns="http://www.w3.org/2000/svg">
<g opacity="0.8">
<path d="M22.892 7.94626H16.6056C16.5554 7.94626 16.5072 7.96621 16.4717 8.00171C16.4362 8.03721 16.4163 8.08537 16.4163 8.13558V17.5704C16.4163 17.6206 16.4362 17.6688 16.4717 17.7043C16.5072 17.7398 16.5554 17.7598 16.6056 17.7598H17.2021V18.3485C17.2021 18.3733 17.207 18.3979 17.2165 18.4209C17.226 18.4439 17.2399 18.4648 17.2575 18.4823C17.2751 18.4999 17.296 18.5139 17.3189 18.5234C17.3419 18.5329 17.3665 18.5378 17.3914 18.5378H18.1694C18.2196 18.5378 18.2678 18.5178 18.3033 18.4823C18.3388 18.4468 18.3587 18.3987 18.3587 18.3485V17.752H21.1363V18.3485C21.1363 18.3987 21.1562 18.4468 21.1917 18.4823C21.2272 18.5178 21.2754 18.5378 21.3256 18.5378H22.1036C22.1538 18.5378 22.202 18.5178 22.2375 18.4823C22.273 18.4468 22.2929 18.3987 22.2929 18.3485V17.752H22.8894C22.9388 17.7527 22.9864 17.7341 23.0223 17.7002C23.0581 17.6663 23.0793 17.6197 23.0813 17.5704V8.13558C23.0813 8.08537 23.0614 8.03721 23.0259 8.00171C22.9904 7.96621 22.9422 7.94626 22.892 7.94626ZM16.7949 8.3249H22.6923V11.0869H16.7949V8.3249ZM17.9879 18.1617H17.5807V17.7572H17.9879V18.1617ZM21.9169 18.1617H21.5097V17.7572H21.9143L21.9169 18.1617ZM22.6949 17.3837H16.7949V11.4681H22.6923L22.6949 17.3837Z" fill="white"/>
<path d="M17.7416 9.08215C17.6914 9.08215 17.6432 9.1021 17.6077 9.1376C17.5722 9.17311 17.5522 9.22126 17.5522 9.27147V10.4074C17.5522 10.4576 17.5722 10.5058 17.6077 10.5413C17.6432 10.5768 17.6914 10.5967 17.7416 10.5967C17.7918 10.5967 17.8399 10.5768 17.8754 10.5413C17.9109 10.5058 17.9309 10.4576 17.9309 10.4074V9.27147C17.9309 9.22126 17.9109 9.17311 17.8754 9.1376C17.8399 9.1021 17.7918 9.08215 17.7416 9.08215Z" fill="white"/>
<path d="M17.7416 16.2737C17.7918 16.2737 17.8399 16.2538 17.8755 16.2183C17.911 16.1828 17.9309 16.1346 17.9309 16.0844V12.5029C17.9309 12.4527 17.911 12.4045 17.8755 12.369C17.8399 12.3335 17.7918 12.3136 17.7416 12.3136C17.6914 12.3136 17.6432 12.3335 17.6077 12.369C17.5722 12.4045 17.5523 12.4527 17.5523 12.5029V16.0818C17.5519 16.1069 17.5566 16.1318 17.5659 16.1551C17.5753 16.1783 17.5892 16.1995 17.6068 16.2174C17.6244 16.2352 17.6454 16.2494 17.6685 16.2591C17.6917 16.2687 17.7165 16.2737 17.7416 16.2737Z" fill="white"/>
<path d="M21.9325 9.08215H21.1363C21.0861 9.08215 21.038 9.1021 21.0025 9.1376C20.967 9.17311 20.947 9.22126 20.947 9.27147C20.947 9.32168 20.967 9.36984 21.0025 9.40534C21.038 9.44085 21.0861 9.46079 21.1363 9.46079H21.9144C21.9646 9.46079 22.0127 9.44085 22.0482 9.40534C22.0837 9.36984 22.1037 9.32168 22.1037 9.27147C22.1037 9.22126 22.0837 9.17311 22.0482 9.1376C22.0127 9.1021 21.9646 9.08215 21.9144 9.08215H21.9325Z" fill="white"/>
<path d="M9.53358 16.2737H14.0721C14.1223 16.2737 14.1704 16.2538 14.2059 16.2183C14.2414 16.1827 14.2614 16.1346 14.2614 16.0844V13.8126C14.2614 13.7623 14.2414 13.7142 14.2059 13.6787C14.1704 13.6432 14.1223 13.6232 14.0721 13.6232H9.53358C9.48336 13.6232 9.43521 13.6432 9.39971 13.6787C9.3642 13.7142 9.34426 13.7623 9.34426 13.8126V16.0818C9.34391 16.1069 9.34856 16.1318 9.35792 16.155C9.36728 16.1783 9.38117 16.1995 9.39878 16.2173C9.4164 16.2352 9.43738 16.2494 9.46052 16.259C9.48366 16.2687 9.50849 16.2737 9.53358 16.2737ZM13.875 15.8925H13.0165L11.1233 13.9993H13.875V15.8925ZM9.72549 13.9993H10.5943L12.4875 15.8925H11.8806L10.8018 14.8136C10.7656 14.7922 10.7233 14.7835 10.6816 14.7887C10.64 14.794 10.6012 14.813 10.5715 14.8427C10.5418 14.8724 10.5228 14.9111 10.5175 14.9528C10.5123 14.9945 10.521 15.0368 10.5424 15.073L11.3542 15.8847H9.72549V13.9993Z" fill="white"/>
<path d="M15.2079 11.3462H8.39757C8.34736 11.3462 8.29921 11.3662 8.2637 11.4017C8.2282 11.4372 8.20825 11.4853 8.20825 11.5355V17.2177C8.20825 17.2679 8.2282 17.3161 8.2637 17.3516C8.29921 17.3871 8.34736 17.407 8.39757 17.407H9.34417V18.3485C9.34417 18.399 9.36425 18.4475 9.4 18.4832C9.43575 18.519 9.48423 18.5391 9.53479 18.5391C9.58534 18.5391 9.63382 18.519 9.66957 18.4832C9.70532 18.4475 9.7254 18.399 9.7254 18.3485V17.407H13.8749V18.3485C13.8749 18.3987 13.8948 18.4468 13.9303 18.4823C13.9658 18.5178 14.014 18.5378 14.0642 18.5378C14.1144 18.5378 14.1626 18.5178 14.1981 18.4823C14.2336 18.4468 14.2535 18.3987 14.2535 18.3485V17.407H15.2001C15.225 17.407 15.2496 17.4021 15.2726 17.3926C15.2955 17.3831 15.3164 17.3692 15.334 17.3516C15.3516 17.334 15.3655 17.3131 15.375 17.2902C15.3845 17.2672 15.3894 17.2426 15.3894 17.2177V11.5407C15.3908 11.4909 15.3726 11.4426 15.3386 11.4062C15.3046 11.3698 15.2577 11.3482 15.2079 11.3462ZM8.58689 11.73H15.0186V12.4873H8.58689V11.73ZM15.0186 17.0284H8.58689V12.8789H15.0186V17.0284Z" fill="white"/>
<path d="M9.65843 11.7949C9.57971 11.802 9.50652 11.8384 9.45322 11.8967C9.39991 11.9551 9.37036 12.0313 9.37036 12.1103C9.37036 12.1893 9.39991 12.2655 9.45322 12.3239C9.50652 12.3822 9.57971 12.4186 9.65843 12.4257C9.73714 12.4186 9.81034 12.3822 9.86364 12.3239C9.91694 12.2655 9.94649 12.1893 9.94649 12.1103C9.94649 12.0313 9.91694 11.9551 9.86364 11.8967C9.81034 11.8384 9.73714 11.802 9.65843 11.7949Z" fill="white"/>
<path d="M10.7295 11.7949C10.6508 11.802 10.5776 11.8384 10.5243 11.8967C10.471 11.9551 10.4414 12.0313 10.4414 12.1103C10.4414 12.1893 10.471 12.2655 10.5243 12.3239C10.5776 12.3822 10.6508 12.4186 10.7295 12.4257C10.8082 12.4186 10.8814 12.3822 10.9347 12.3239C10.988 12.2655 11.0175 12.1893 11.0175 12.1103C11.0175 12.0313 10.988 11.9551 10.9347 11.8967C10.8814 11.8384 10.8082 11.802 10.7295 11.7949Z" fill="white"/>
<path d="M11.8005 11.7949C11.7218 11.802 11.6486 11.8384 11.5953 11.8967C11.542 11.9551 11.5125 12.0313 11.5125 12.1103C11.5125 12.1893 11.542 12.2655 11.5953 12.3239C11.6486 12.3822 11.7218 12.4186 11.8005 12.4257C11.8792 12.4186 11.9524 12.3822 12.0057 12.3239C12.059 12.2655 12.0886 12.1893 12.0886 12.1103C12.0886 12.0313 12.059 11.9551 12.0057 11.8967C11.9524 11.8384 11.8792 11.802 11.8005 11.7949Z" fill="white"/>
<path d="M12.8767 11.7949C12.798 11.802 12.7248 11.8384 12.6715 11.8967C12.6182 11.9551 12.5886 12.0313 12.5886 12.1103C12.5886 12.1893 12.6182 12.2655 12.6715 12.3239C12.7248 12.3822 12.798 12.4186 12.8767 12.4257C12.9554 12.4186 13.0286 12.3822 13.0819 12.3239C13.1352 12.2655 13.1648 12.1893 13.1648 12.1103C13.1648 12.0313 13.1352 11.9551 13.0819 11.8967C13.0286 11.8384 12.9554 11.802 12.8767 11.7949Z" fill="white"/>
<path d="M13.9477 11.7949C13.869 11.802 13.7958 11.8384 13.7425 11.8967C13.6892 11.9551 13.6597 12.0313 13.6597 12.1103C13.6597 12.1893 13.6892 12.2655 13.7425 12.3239C13.7958 12.3822 13.869 12.4186 13.9477 12.4257C14.0264 12.4186 14.0996 12.3822 14.1529 12.3239C14.2062 12.2655 14.2358 12.1893 14.2358 12.1103C14.2358 12.0313 14.2062 11.9551 14.1529 11.8967C14.0996 11.8384 14.0264 11.802 13.9477 11.7949Z" fill="white"/>
<path d="M6.99964 10.2181H0.18932C0.139109 10.2181 0.0909547 10.238 0.0554504 10.2735C0.0199461 10.309 0 10.3572 0 10.4074V18.3485C0 18.4 0.0204926 18.4495 0.0569696 18.486C0.0934466 18.5225 0.14292 18.543 0.194506 18.543C0.246093 18.543 0.295566 18.5225 0.332043 18.486C0.36852 18.4495 0.389013 18.4 0.389013 18.3485V17.407H6.82069V18.3485C6.82069 18.3987 6.84064 18.4468 6.87614 18.4823C6.91165 18.5178 6.9598 18.5378 7.01001 18.5378C7.06022 18.5378 7.10838 18.5178 7.14388 18.4823C7.17939 18.4468 7.19933 18.3987 7.19933 18.3485V10.4074C7.19937 10.3816 7.19415 10.3562 7.184 10.3325C7.17384 10.3088 7.15896 10.2875 7.14027 10.2697C7.12157 10.252 7.09946 10.2383 7.07528 10.2294C7.0511 10.2205 7.02536 10.2167 6.99964 10.2181ZM6.81032 11.7326V17.0284H3.7838V11.7301L6.81032 11.7326ZM6.81032 10.5967V11.3462H0.389013V10.5967H6.81032ZM0.389013 11.7301H3.40516V17.0284H0.389013V11.7301Z" fill="white"/>
<path d="M2.46398 14.7592C2.43912 14.7592 2.4145 14.7641 2.39153 14.7736C2.36856 14.7831 2.34769 14.797 2.33011 14.8146C2.31253 14.8322 2.29858 14.8531 2.28907 14.876C2.27956 14.899 2.27466 14.9236 2.27466 14.9485V16.0844C2.27466 16.1346 2.2946 16.1828 2.33011 16.2183C2.36561 16.2538 2.41377 16.2737 2.46398 16.2737C2.51419 16.2737 2.56234 16.2538 2.59785 16.2183C2.63335 16.1828 2.6533 16.1346 2.6533 16.0844V14.9485C2.6533 14.9236 2.6484 14.899 2.63889 14.876C2.62937 14.8531 2.61543 14.8322 2.59785 14.8146C2.58027 14.797 2.5594 14.7831 2.53643 14.7736C2.51346 14.7641 2.48884 14.7592 2.46398 14.7592Z" fill="white"/>
<path d="M4.73034 16.2737C4.78055 16.2737 4.8287 16.2538 4.8642 16.2183C4.89971 16.1828 4.91965 16.1346 4.91965 16.0844V14.9485C4.91965 14.9236 4.91476 14.899 4.90524 14.876C4.89573 14.8531 4.88178 14.8322 4.8642 14.8146C4.84662 14.797 4.82575 14.7831 4.80278 14.7736C4.77982 14.7641 4.7552 14.7592 4.73034 14.7592C4.70547 14.7592 4.68086 14.7641 4.65789 14.7736C4.63492 14.7831 4.61405 14.797 4.59647 14.8146C4.57889 14.8322 4.56494 14.8531 4.55543 14.876C4.54591 14.899 4.54102 14.9236 4.54102 14.9485V16.0844C4.54102 16.1346 4.56096 16.1828 4.59647 16.2183C4.63197 16.2538 4.68012 16.2737 4.73034 16.2737Z" fill="white"/>
<path d="M10.4047 2.26926C10.3544 2.26926 10.3063 2.2892 10.2708 2.32471C10.2353 2.36021 10.2153 2.40837 10.2153 2.45858V3.59449C10.2153 3.6447 10.2353 3.69286 10.2708 3.72836C10.3063 3.76387 10.3544 3.78381 10.4047 3.78381C10.4549 3.78381 10.503 3.76387 10.5385 3.72836C10.574 3.69286 10.594 3.6447 10.594 3.59449V2.46117C10.5943 2.43609 10.5897 2.41119 10.5803 2.38792C10.571 2.36465 10.5571 2.34348 10.5394 2.32562C10.5218 2.30777 10.5008 2.29359 10.4777 2.28391C10.4546 2.27424 10.4297 2.26925 10.4047 2.26926Z" fill="white"/>
<path d="M22.8922 1.33394e-08H0.189391C0.164086 -9.48534e-06 0.139037 0.00505397 0.115723 0.0148909C0.0924087 0.0247278 0.0713032 0.0391385 0.0536538 0.0572715C0.0360043 0.0754045 0.0221691 0.0968919 0.0129657 0.120463C0.00376243 0.144035 -0.000622201 0.169212 7.10705e-05 0.194506V4.7304C7.10705e-05 4.78061 0.0200171 4.82876 0.0555215 4.86427C0.0910258 4.89977 0.13918 4.91972 0.189391 4.91972H22.8922C22.9424 4.91972 22.9905 4.89977 23.0261 4.86427C23.0616 4.82876 23.0815 4.78061 23.0815 4.7304V0.194506C23.0822 0.169212 23.0778 0.144035 23.0686 0.120463C23.0594 0.0968919 23.0456 0.0754045 23.0279 0.0572715C23.0103 0.0391385 22.9892 0.0247278 22.9659 0.0148909C22.9425 0.00505397 22.9175 -9.48534e-06 22.8922 1.33394e-08ZM14.7566 4.54108H11.7301V0.391606H14.7566V4.54108ZM0.389084 0.378639H7.94631V4.52811H0.389084V0.378639ZM8.33532 0.378639H11.3515V4.52811H8.32495L8.33532 0.378639ZM22.6925 4.54108H15.1353V0.391606H22.6925V4.54108Z" fill="white"/>
<path d="M12.6766 3.78381C12.7268 3.78381 12.775 3.76387 12.8105 3.72836C12.846 3.69286 12.8659 3.64471 12.8659 3.59449V2.46117C12.8659 2.41096 12.846 2.36281 12.8105 2.3273C12.775 2.2918 12.7268 2.27185 12.6766 2.27185C12.6264 2.27185 12.5783 2.2918 12.5428 2.3273C12.5073 2.36281 12.4873 2.41096 12.4873 2.46117V3.59709C12.488 3.64685 12.5082 3.69434 12.5437 3.72928C12.5791 3.76423 12.6269 3.78382 12.6766 3.78381Z" fill="white"/>
<path d="M4.73027 3.40778H3.59435C3.54414 3.40778 3.49598 3.42772 3.46048 3.46323C3.42498 3.49873 3.40503 3.54689 3.40503 3.5971C3.40503 3.64731 3.42498 3.69546 3.46048 3.73096C3.49598 3.76647 3.54414 3.78642 3.59435 3.78642H4.73027C4.78048 3.78642 4.82863 3.76647 4.86414 3.73096C4.89964 3.69546 4.91959 3.64731 4.91959 3.5971C4.91959 3.54689 4.89964 3.49873 4.86414 3.46323C4.82863 3.42772 4.78048 3.40778 4.73027 3.40778Z" fill="white"/>
<path d="M18.3509 3.78382H19.4869C19.5371 3.78382 19.5852 3.76388 19.6207 3.72837C19.6562 3.69287 19.6762 3.64471 19.6762 3.5945C19.6762 3.54429 19.6562 3.49614 19.6207 3.46063C19.5852 3.42513 19.5371 3.40518 19.4869 3.40518H18.3509C18.3007 3.40518 18.2526 3.42513 18.2171 3.46063C18.1816 3.49614 18.1616 3.54429 18.1616 3.5945C18.1616 3.64471 18.1816 3.69287 18.2171 3.72837C18.2526 3.76388 18.3007 3.78382 18.3509 3.78382Z" fill="white"/>
</g>
</svg>
