<svg width="21" height="19" viewBox="0 0 21 19" fill="none" xmlns="http://www.w3.org/2000/svg">
<g opacity="0.8">
<path d="M20.261 5.1378C20.2606 5.13298 20.2621 5.1289 20.2617 5.12371C20.2606 5.11221 20.2565 5.10146 20.2543 5.09033C20.2513 5.07439 20.2487 5.05807 20.2439 5.04286C20.2391 5.0284 20.2328 5.01505 20.2261 5.0017C20.2187 4.98612 20.2124 4.97166 20.2031 4.95756C20.195 4.94533 20.1849 4.9342 20.1753 4.92233C20.1646 4.91009 20.1542 4.89786 20.1416 4.88636C20.1301 4.8756 20.1163 4.86707 20.103 4.85817C20.0937 4.85187 20.0859 4.84371 20.0763 4.83852C20.0722 4.83592 20.0674 4.83518 20.0629 4.83295C20.0581 4.83073 20.0548 4.82702 20.05 4.82517L9.17408 0.0303031C9.06876 -0.0160546 8.94563 -0.00900802 8.84661 0.0499589L0.411375 5.04731C0.40952 5.04843 0.408037 5.05028 0.406553 5.05176C0.403957 5.05288 0.401361 5.05362 0.399136 5.0551C0.382077 5.06586 0.367613 5.08032 0.352779 5.09367C0.346474 5.09997 0.338686 5.10405 0.332752 5.11073C0.311242 5.13335 0.293441 5.15857 0.278606 5.18527C0.275639 5.19121 0.274527 5.19714 0.27156 5.2027C0.261176 5.22533 0.251533 5.24758 0.246341 5.27242C0.243745 5.28244 0.243745 5.29282 0.241891 5.30321C0.240408 5.32027 0.236328 5.33695 0.236328 5.35438V12.9185C0.236328 13.0568 0.316434 13.1825 0.441785 13.2415L11.6663 18.5092C11.6711 18.5114 11.6755 18.5103 11.6804 18.5122C11.7245 18.5311 11.7712 18.5429 11.8183 18.5429C11.8517 18.5429 11.8854 18.5381 11.9177 18.5289C11.9262 18.5263 11.9344 18.5207 11.9429 18.5177C11.9659 18.5092 11.9889 18.501 12.0101 18.4877C12.0104 18.4873 12.0108 18.4869 12.0112 18.4866C12.0115 18.4866 12.0119 18.4866 12.0123 18.4862L20.0993 13.2864C20.2009 13.22 20.2628 13.1072 20.2628 12.9863V5.1519C20.2628 5.14707 20.261 5.14262 20.261 5.1378ZM9.05318 0.75682L19.1536 5.21049L11.7872 9.9475L1.37005 5.30914L9.05318 0.75682ZM0.951719 5.904L2.73222 6.6969L11.4608 10.5832V17.624L9.38696 16.6508V11.8311C9.38696 11.695 9.30945 11.5711 9.18706 11.5114L7.04831 10.4649C6.93742 10.4107 6.80725 10.417 6.70155 10.4823C6.59697 10.5476 6.53318 10.6614 6.53318 10.7849V15.312L5.00671 14.5951V9.67047C5.00671 9.53436 4.9292 9.41049 4.80682 9.35041L2.66806 8.30384C2.55792 8.2497 2.427 8.25563 2.32131 8.32127C2.21636 8.38655 2.15294 8.5004 2.15294 8.6239V13.256L0.951348 12.6919V5.904H0.951719ZM7.24857 15.6458V11.3571L8.67156 12.0536V16.3133L7.24857 15.6458ZM2.8687 13.4848V9.19576L4.29169 9.89261V14.1523L2.8687 13.4848ZM16.2197 14.9319V11.4228L17.2125 10.7753V14.2933L16.2197 14.9319ZM17.9275 13.8338V10.1155C17.9275 9.98422 17.8556 9.86406 17.7399 9.80138C17.6245 9.73945 17.484 9.74575 17.3738 9.81696L15.666 10.9314C15.5651 10.997 15.5043 11.109 15.5043 11.2299V15.3917L12.1758 17.532V10.5464L19.5474 5.80609V12.7916L17.9275 13.8338Z" fill="white"/>
</g>
</svg>
