<svg width="23" height="19" viewBox="0 0 23 19" fill="none" xmlns="http://www.w3.org/2000/svg">
<path opacity="0.8" d="M0 13.9685C0 16.4735 2.05416 18.5429 4.60132 18.5429C7.14847 18.5429 9.20263 16.4735 9.20263 13.9685C9.20263 13.7779 9.17524 13.6145 9.17524 13.4239L12.5441 12.7976L16.2142 17.9711C16.2689 18.0528 16.3511 18.0801 16.4333 18.0801C16.4607 18.0801 16.4607 18.0801 16.488 18.0801C16.5976 18.0528 16.6798 17.9711 16.7072 17.8622L20.1034 2.7229H20.432C20.5142 2.83182 20.6511 2.9135 20.7881 2.9135H22.404C22.6505 2.9135 22.8696 2.69567 22.8696 2.45061C22.8696 2.20555 22.6505 1.98772 22.404 1.98772H20.7881C20.6511 1.98772 20.5142 2.0694 20.432 2.17832H19.8843C19.7473 2.17832 19.6378 2.26001 19.6104 2.39615L19.0352 5.01014H18.6244C18.4874 2.99519 16.7619 1.38868 14.6804 1.38868C13.9957 1.38868 13.3383 1.55205 12.7358 1.8788C12.0237 0.707954 10.7638 0 9.36696 0C7.61408 0 6.08031 1.14362 5.58731 2.80459C5.23126 2.64121 4.84782 2.55953 4.43698 2.55953C3.01277 2.55953 1.83505 3.64869 1.6981 5.03736H1.06816C0.985996 5.03736 0.90383 5.09182 0.849052 5.14628C0.794275 5.22797 0.794275 5.30965 0.821663 5.39134L2.41021 9.93858C0.985997 10.7282 0 12.2258 0 13.9685ZM16.3237 17.1543L13.1466 12.6887L17.5288 11.8991L16.3237 17.1543ZM4.46437 3.10411C4.8752 3.10411 5.28604 3.21302 5.64209 3.45808C5.72426 3.51254 5.80642 3.51254 5.88859 3.48531C5.97076 3.45808 6.02553 3.3764 6.05292 3.29471C6.3542 1.71543 7.77841 0.571809 9.36696 0.571809C10.6542 0.571809 11.8046 1.27976 12.3797 2.42338C12.4071 2.50507 12.4893 2.5323 12.5441 2.55953C12.6262 2.58675 12.7084 2.55953 12.7632 2.5323C13.311 2.15109 13.9683 1.96049 14.653 1.96049C16.4333 1.96049 17.8849 3.32194 18.0218 5.06459H2.27327C2.41021 3.9482 3.34143 3.10411 4.46437 3.10411ZM1.45161 5.58194H18.8983L17.6384 11.3273L9.0383 12.8793C8.5453 10.8916 6.73764 9.394 4.57393 9.394C3.97137 9.394 3.39621 9.50292 2.87582 9.72075L1.45161 5.58194ZM4.60132 9.93858C6.49114 9.93858 8.07969 11.2456 8.51791 12.9882L6.49114 13.3422C6.21726 12.5526 5.47776 11.9808 4.60132 11.9808C3.50577 11.9808 2.60193 12.8793 2.60193 13.9685C2.60193 15.0576 3.50577 15.9562 4.60132 15.9562C5.69687 15.9562 6.6007 15.0576 6.6007 13.9685C6.6007 13.9412 6.6007 13.914 6.6007 13.8868L8.62747 13.5328C8.65486 13.669 8.65486 13.8323 8.65486 13.9685C8.65486 16.174 6.81981 17.9711 4.60132 17.9711C2.38282 17.9711 0.547776 16.174 0.547776 13.9685C0.547776 11.7629 2.35544 9.93858 4.60132 9.93858ZM4.60132 14.2408C4.62871 14.2408 4.62871 14.2408 4.65609 14.2408L6.05292 13.9957C6.05292 14.7853 5.39559 15.4388 4.60132 15.4388C3.80704 15.4388 3.14971 14.7853 3.14971 13.9957C3.14971 13.2061 3.80704 12.5526 4.60132 12.5526C5.20387 12.5526 5.75165 12.9338 5.94337 13.4784L4.54654 13.6962C4.4096 13.7234 4.30004 13.8596 4.32743 14.0229C4.35482 14.1319 4.46437 14.2408 4.60132 14.2408Z" fill="white"/>
</svg>
