<svg width="49" height="21" viewBox="0 0 49 21" fill="none" xmlns="http://www.w3.org/2000/svg">
<path d="M0 5.87202V8.80804H1.20376L5.87202 4.13978V20.5521H8.80803V0H5.87202L0 5.87202Z" fill="#D6C21A"/>
<path d="M31.132 2.93601V0H12.6352V10.5696H26.4344C28.0492 10.5696 29.3704 11.8908 29.3704 13.5057V14.6801C29.3704 16.2949 28.0492 17.6161 26.4344 17.6161H17.6264C16.0116 17.6161 14.6904 16.2949 14.6904 14.6801H11.7544C11.8424 17.9978 14.4261 20.5521 17.6264 20.5521H26.4344C29.7228 20.5521 32.3064 17.7922 32.3064 14.6801V13.5057C32.3064 10.2467 29.5172 7.63363 26.4344 7.63363H15.5712V2.93601H31.132Z" fill="#D6C21A"/>
<path d="M42.8772 17.6161V11.744H48.7493V8.80804H42.8772V2.93601H39.9412V8.80804H34.0692V11.744H39.9412V17.6161H42.8772Z" fill="#D6C21A"/>
</svg>
