<svg width="60" height="21" viewBox="0 0 60 21" fill="none" xmlns="http://www.w3.org/2000/svg">
<path d="M19.3777 2.93601V0H0.880804V10.5696H14.6801C16.2949 10.5696 17.6161 11.8908 17.6161 13.5057V14.6801C17.6161 16.2949 16.2949 17.6161 14.6801 17.6161H5.87202C4.25722 17.6161 2.93601 16.2949 2.93601 14.6801H0C0.0880804 17.9978 2.67177 20.5521 5.87202 20.5521H14.6801C17.9684 20.5521 20.5521 17.7922 20.5521 14.6801V13.5057C20.5521 10.2467 17.7629 7.63363 14.6801 7.63363H3.81682V2.93601H19.3777Z" fill="#D6C21A"/>
<path d="M40.5181 14.6801C40.5181 16.2949 39.1969 17.6161 37.5821 17.6161H28.7741C27.1593 17.6161 25.8381 16.2949 25.8381 14.6801V5.87202C25.8381 4.25722 27.1593 2.93601 28.7741 2.93601H37.5821C39.1969 2.93601 40.5181 4.25722 40.5181 5.87202V14.6801ZM43.4541 5.87202C43.366 2.61305 40.7236 0 37.5821 0H28.7741C25.4857 0 22.902 2.75985 22.902 5.87202V14.6801C22.902 17.9978 25.6325 20.5521 28.7741 20.5521H37.5821C40.8704 20.5521 43.4541 17.7922 43.4541 14.6801V5.87202Z" fill="#D6C21A"/>
<path d="M54.0318 17.6161V11.744H59.9038V8.80804H54.0318V2.93601H51.0958V8.80804H45.2238V11.744H51.0958V17.6161H54.0318Z" fill="#D6C21A"/>
</svg>
