<svg width="40" height="40" viewBox="0 0 40 40" fill="none" xmlns="http://www.w3.org/2000/svg">
<path d="M19.8792 19.8793C24.4538 19.8793 28.1622 16.1708 28.1622 11.5963C28.1622 7.02167 24.4538 3.31323 19.8792 3.31323C15.3046 3.31323 11.5962 7.02167 11.5962 11.5963C11.5962 16.1708 15.3046 19.8793 19.8792 19.8793Z" stroke="#D6C21A" stroke-width="2.14084" stroke-linecap="round" stroke-linejoin="round"/>
<path d="M28.1622 36.4452H8.7236C8.25375 36.4453 7.78926 36.3455 7.36095 36.1524C6.93264 35.9592 6.5503 35.6772 6.23931 35.325C5.92833 34.9728 5.6958 34.5585 5.55717 34.1096C5.41854 33.6607 5.37698 33.1874 5.43524 32.7212L6.08131 27.5459C6.23156 26.3436 6.81588 25.2376 7.72439 24.4359C8.63289 23.6341 9.803 23.1919 11.0147 23.1924H11.5961" stroke="#D6C21A" stroke-width="2.14084" stroke-linecap="round" stroke-linejoin="round"/>
<path d="M26.5056 26.5056L30.233 29.8188L36.4452 23.1924" stroke="#D6C21A" stroke-width="2.14084" stroke-linecap="round" stroke-linejoin="round"/>
</svg>
