<svg width="32" height="32" viewBox="0 0 32 32" fill="none" xmlns="http://www.w3.org/2000/svg">
<rect width="32" height="32" fill="#292626"/>
<path d="M4.2785 17.5215H3.44993V23.3215H9.24993V22.493H4.2785V17.5215ZM13.9728 18.3501C14.4285 18.3501 14.8014 18.723 14.8014 19.1787V20.8358H10.6585V19.1787C10.6585 18.723 11.0314 18.3501 11.4871 18.3501H13.9728ZM15.6299 19.1787C15.6051 18.259 14.8594 17.5215 13.9728 17.5215H11.4871C10.5591 17.5215 9.82993 18.3004 9.82993 19.1787V23.3215H10.6585V21.6644H14.8014V23.3215H15.6299V19.1787ZM22.4226 17.5215H21.594V21.913L17.4512 17.5215H16.6226V23.3215H17.4512V18.8638L21.594 23.3215H22.4226V17.5215ZM28.3867 21.6644C28.3867 22.1201 28.0138 22.493 27.5581 22.493H24.2438V18.3501H27.5581C28.0138 18.3501 28.3867 18.723 28.3867 19.1787V21.6644ZM29.2153 19.1787C29.1904 18.259 28.4447 17.5215 27.5581 17.5215H23.4153V23.3215H27.5581C28.4861 23.3215 29.2153 22.5427 29.2153 21.6644V19.1787Z" fill="white"/>
<path d="M6.55714 14C7.48514 13.9751 8.21429 13.2377 8.21429 12.3429C8.21429 11.8457 8.02372 11.4314 7.65086 11.1C8.02372 10.7686 8.21429 10.3543 8.21429 9.85714C8.21429 8.93743 7.42714 8.2 6.55714 8.2H2.41429V14H6.55714ZM6.55714 11.5143C7.01286 11.5143 7.38572 11.8871 7.38572 12.3429C7.38572 12.7986 7.01286 13.1714 6.55714 13.1714H3.24286V11.5143H6.55714ZM3.24286 9.02857H6.55714C7.01286 9.02857 7.38572 9.40143 7.38572 9.85714C7.38572 10.3129 7.01286 10.6857 6.55714 10.6857H3.24286V9.02857ZM14.0146 12.3429C14.0146 12.7986 13.6418 13.1714 13.186 13.1714H10.7003C10.2446 13.1714 9.87175 12.7986 9.87175 12.3429V9.85714C9.87175 9.40143 10.2446 9.02857 10.7003 9.02857H13.186C13.6418 9.02857 14.0146 9.40143 14.0146 9.85714V12.3429ZM14.8432 9.85714C14.8432 8.954 14.0643 8.2 13.186 8.2H10.7003C9.7889 8.2 9.04318 8.94571 9.04318 9.85714V12.3429C9.04318 13.2626 9.78061 14 10.7003 14H13.186C14.0975 14 14.8432 13.2543 14.8432 12.3429V9.85714ZM20.7283 12.3429C20.7283 12.7986 20.3554 13.1714 19.8997 13.1714H17.414C16.9583 13.1714 16.5854 12.7986 16.5854 12.3429V8.2H15.7569V12.3429C15.7569 13.2791 16.5274 14 17.414 14H19.8997C20.8277 14 21.5569 13.2211 21.5569 12.3429V8.2H20.7283V12.3429ZM27.521 13.1714C27.0653 13.1714 26.6924 12.7986 26.6924 12.3429V8.2H25.8638V12.3429C25.8638 12.7986 25.491 13.1714 25.0353 13.1714H24.2067C23.751 13.1714 23.3781 12.7986 23.3781 12.3429V8.2H22.5495V12.3429C22.5495 13.2791 23.3201 14 24.2067 14H25.0353C25.5324 14 25.9467 13.8094 26.2781 13.4366C26.6095 13.8094 27.0238 14 27.521 14H28.3495C29.2775 14 30.0067 13.2211 30.0067 12.3429V8.2H29.1781V12.3429C29.1781 12.7986 28.8053 13.1714 28.3495 13.1714H27.521Z" fill="white"/>
</svg>
