<svg width="19" height="19" viewBox="0 0 19 19" fill="none" xmlns="http://www.w3.org/2000/svg">
<path opacity="0.8" d="M14.0023 18.5427L14.1363 18.538C15.1255 18.5314 15.9302 17.7192 15.9302 16.7274L15.9302 3.10219L18.3112 3.10219C18.4393 3.10219 18.543 2.99852 18.543 2.8704L18.543 1.57271C18.543 0.705546 17.8392 -3.07613e-08 16.9741 -6.85771e-08C16.9663 -6.89179e-08 16.9589 1.40779e-05 16.9511 1.40776e-05C16.9511 1.40776e-05 16.951 -6.95851e-08 16.951 -6.95863e-08C16.9509 -6.95901e-08 16.9508 1.40776e-05 16.9507 1.40775e-05C3.40603 0.00793589 3.36116 0.0124488 3.34622 0.013807C2.47973 0.0998216 1.8009 0.879612 1.8009 1.78956L1.8009 15.656L0.231807 15.656C0.10369 15.656 2.0292e-05 15.7597 2.02864e-05 15.8878L2.02497e-05 16.7262C2.02059e-05 17.7281 0.812858 18.5429 1.81199 18.5429L13.9942 18.5429C13.9957 18.5429 13.9969 18.5421 13.9984 18.5421C13.9998 18.5421 14.0009 18.5428 14.0023 18.5427ZM18.0794 1.57271L18.0794 2.63861L15.9302 2.63861L15.9302 1.48443C15.9302 0.921503 16.388 0.463602 16.951 0.463574C16.9629 0.463574 16.9718 0.463574 16.9743 0.463574C17.5837 0.463574 18.0794 0.9611 18.0794 1.57271ZM2.26447 1.78956C2.26447 1.11525 2.75973 0.537817 3.37677 0.476023C3.54869 0.472274 12.6697 0.466205 15.8756 0.464224C15.6228 0.730502 15.4666 1.08922 15.4666 1.48443L15.4666 16.7274C15.4666 17.4653 14.8683 18.0696 14.1266 18.0746L13.9934 18.0793C13.2502 18.0789 12.6458 17.4721 12.6458 16.7262L12.6458 15.8878C12.6458 15.7597 12.5421 15.656 12.414 15.656L2.26447 15.656L2.26447 1.78956ZM1.81199 18.0794C1.06841 18.0794 0.463594 17.4723 0.463594 16.7262L0.463594 16.1196L12.1822 16.1196L12.1822 16.7262C12.1822 17.2631 12.4158 17.7464 12.7863 18.0794L1.81199 18.0794Z" fill="white"/>
</svg>
