<svg width="19" height="19" viewBox="0 0 19 19" fill="none" xmlns="http://www.w3.org/2000/svg">
<g opacity="0.8">
<path d="M6.82567 9.97225L7.91127 9.97893L7.35489 13.6936C7.34006 13.7921 7.38986 13.889 7.47859 13.9344C7.51198 13.9514 7.54808 13.9597 7.58396 13.9597C7.64326 13.9597 7.70177 13.937 7.74614 13.8936L13.1133 8.64412C13.1806 8.57836 13.2014 8.47843 13.166 8.39117C13.1307 8.30402 13.046 8.24687 12.9518 8.24664L10.7839 8.24087L12.1971 4.90565C12.2274 4.83401 12.2198 4.75207 12.1768 4.68722C12.1339 4.62237 12.0614 4.58344 11.9836 4.58344H7.38907C7.27125 4.58344 7.1721 4.67183 7.15875 4.78896L6.59671 9.71421C6.58924 9.77951 6.60995 9.84504 6.65364 9.89427C6.69733 9.94351 6.7598 9.9718 6.82567 9.97225ZM7.59595 5.04701H11.6337L10.2209 8.38132C10.1907 8.45285 10.1981 8.53468 10.2409 8.59953C10.2837 8.66426 10.3561 8.70331 10.4338 8.70354L12.3844 8.70874L7.91557 13.0795L8.40924 9.78302C8.4192 9.71659 8.39985 9.64902 8.35616 9.59798C8.31248 9.54693 8.24865 9.51739 8.18153 9.51694L7.08654 9.51026L7.59595 5.04701Z" fill="white"/>
<path d="M0.231787 18.5429H18.3112C18.4392 18.5429 18.5429 18.4392 18.5429 18.3112V0.231787C18.5429 0.103783 18.4392 0 18.3112 0H0.231787C0.103783 0 0 0.103783 0 0.231787V18.3112C0 18.4392 0.103783 18.5429 0.231787 18.5429ZM0.463574 0.463574H18.0794V18.0794H0.463574V0.463574Z" fill="white"/>
<path d="M15.7861 2.48047H3.06462C2.93661 2.48047 2.83283 2.58425 2.83283 2.71226V3.87323H2.12095C1.99294 3.87323 1.88916 3.97701 1.88916 4.10501V6.73129C1.88916 6.85929 1.99294 6.96308 2.12095 6.96308H2.83283V11.6373H2.12095C1.99294 11.6373 1.88916 11.7411 1.88916 11.8691V14.4954C1.88916 14.6234 1.99294 14.7271 2.12095 14.7271H2.83283V15.8308C2.83283 15.9589 2.93661 16.0626 3.06462 16.0626H15.7861C15.9141 16.0626 16.0179 15.9589 16.0179 15.8308V2.71226C16.0179 2.58425 15.9141 2.48047 15.7861 2.48047ZM2.35273 4.3368H3.80378V6.4995H2.35273V4.3368ZM2.35273 12.1009H3.80378V14.2636H2.35273V12.1009ZM15.5543 15.5991H3.29641V14.7271H4.03557C4.16357 14.7271 4.26735 14.6234 4.26735 14.4954V11.8691C4.26735 11.7411 4.16357 11.6373 4.03557 11.6373H3.29641V6.96308H4.03557C4.16357 6.96308 4.26735 6.85929 4.26735 6.73129V4.10501C4.26735 3.97701 4.16357 3.87323 4.03557 3.87323H3.29641V2.94404H15.5543V15.5991Z" fill="white"/>
</g>
</svg>
