<svg width="19" height="19" viewBox="0 0 19 19" fill="none" xmlns="http://www.w3.org/2000/svg">
<path opacity="0.8" d="M12.7846 12.2037C12.9884 12.4075 13.2602 12.5181 13.5411 12.5181C13.6162 12.5181 13.692 12.5102 13.7673 12.4941C14.1242 12.4176 14.4146 12.1682 14.5444 11.827L18.4692 1.49699C18.625 1.08703 18.5298 0.639045 18.2209 0.327672C17.9117 0.0165248 17.4645 -0.0822861 17.0522 0.0711934L6.70344 3.97632C6.35992 4.1041 6.1082 4.3942 6.0301 4.75243C5.952 5.11078 6.0602 5.47953 6.31963 5.73884L8.80119 8.22029L7.36942 9.652L6.68238 8.96497C6.59546 8.87804 6.44153 8.87804 6.3546 8.96497L5.57249 9.74719C5.28442 10.0353 5.24459 10.4768 5.44858 10.8099L4.57249 11.6859L4.26701 11.3805C4.17646 11.2899 4.02977 11.2899 3.93922 11.3805L0.666464 14.6532C-0.222155 15.5418 -0.222155 16.9878 0.666464 17.8764C1.11072 18.3208 1.69441 18.5429 2.27811 18.5429C2.8617 18.5429 3.44539 18.3208 3.88965 17.8764L7.1624 14.6036C7.25295 14.5131 7.25295 14.3664 7.1624 14.2759L6.85692 13.9704L7.733 13.0943C7.87109 13.1788 8.02709 13.2233 8.18402 13.2233C8.40552 13.2233 8.62702 13.139 8.79567 12.9704L9.5779 12.1883C9.62136 12.1448 9.64581 12.0858 9.64581 12.0244C9.64581 11.9629 9.62136 11.9039 9.5779 11.8605L8.87368 11.1563L10.3044 9.72351L12.7846 12.2037ZM6.64741 5.41106C6.49801 5.26165 6.43813 5.05758 6.48307 4.85113C6.528 4.6449 6.66722 4.48441 6.86609 4.41038L17.2149 0.505373C17.4568 0.415164 17.7099 0.471191 17.8918 0.654325C18.0737 0.837572 18.1276 1.09099 18.0359 1.33231L14.1111 11.6623C14.0364 11.8588 13.8757 11.9968 13.6702 12.0407C13.4649 12.0847 13.2612 12.0248 13.1123 11.8759L10.6319 9.39548L12.1692 7.85609C12.5831 7.44217 12.583 6.76849 12.1688 6.35446C11.755 5.94043 11.0813 5.9402 10.6673 6.35423L9.12897 7.89251L6.64741 5.41106ZM3.56186 17.5486C2.85423 18.2565 1.70234 18.2567 0.994249 17.5486C0.286388 16.8408 0.286388 15.6889 0.994249 14.981L4.10311 11.8721L6.67073 14.4397L3.56186 17.5486ZM4.90028 12.0137L5.75794 11.1561L7.38679 12.7849L6.52913 13.6426L4.90028 12.0137ZM8.46789 12.6426C8.3161 12.794 8.05159 12.7943 7.90003 12.6426L5.90027 10.6428C5.82444 10.567 5.78267 10.4661 5.78267 10.359C5.78267 10.2517 5.82444 10.1508 5.90027 10.075L6.51849 9.45665L9.08622 12.0244L8.46789 12.6426ZM7.69721 9.97979L10.9951 6.68202C11.2284 6.44874 11.6078 6.44897 11.841 6.68224C12.0743 6.91563 12.0745 7.29514 11.8413 7.52842L8.5459 10.8285L7.69721 9.97979Z" fill="white"/>
</svg>
