<svg width="20" height="19" viewBox="0 0 20 19" fill="none" xmlns="http://www.w3.org/2000/svg">
<g opacity="0.8">
<path d="M9.83297 1.94883e-05C9.78614 -0.000487604 9.73974 0.00890615 9.69681 0.0276394L0.671657 3.95678C0.612369 3.98256 0.561917 4.02514 0.526515 4.07923C0.491113 4.13333 0.472307 4.19659 0.472413 4.26124V5.6285C0.472563 5.68334 0.486321 5.73732 0.512451 5.78553C0.538582 5.83375 0.576269 5.87468 0.622133 5.90475C0.667998 5.93481 0.720606 5.95305 0.775242 5.95778C0.829878 5.96251 0.884833 5.95361 0.93518 5.93188L1.32375 5.76248V17.9252C1.32382 18.0064 1.33988 18.0868 1.37102 18.1618C1.40216 18.2368 1.44776 18.3048 1.50523 18.3622C1.5627 18.4196 1.63091 18.4651 1.70595 18.4961C1.781 18.5271 1.86142 18.543 1.94262 18.5429H17.7145C17.7958 18.5432 17.8763 18.5273 17.9515 18.4964C18.0267 18.4655 18.095 18.42 18.1526 18.3627C18.2102 18.3053 18.2559 18.2371 18.2871 18.162C18.3183 18.0869 18.3344 18.0064 18.3345 17.9252V5.76248L18.723 5.93188C18.7734 5.95386 18.8285 5.96293 18.8833 5.95832C18.9381 5.95371 18.9909 5.93558 19.0369 5.90548C19.0829 5.87539 19.1207 5.83432 19.1469 5.78598C19.1731 5.73763 19.1869 5.68348 19.187 5.6285V4.26124C19.1871 4.19658 19.1682 4.13328 19.1328 4.07918C19.0974 4.02509 19.0469 3.98255 18.9876 3.95678L9.96142 0.0276394C9.92087 0.00994277 9.8772 0.000571331 9.83297 1.94883e-05H9.83297ZM9.82729 0.331017L18.8535 4.26129V5.62855L9.96016 1.75587C9.91842 1.7377 9.87339 1.7283 9.82786 1.7283C9.78234 1.7283 9.7373 1.7377 9.69556 1.75587L0.80106 5.62855V4.26129L9.82729 0.331017ZM9.82729 2.06033L18.0011 5.61859V17.9252C18.001 17.9629 17.9936 18.0003 17.9791 18.0351C17.9646 18.07 17.9434 18.1017 17.9166 18.1283C17.8899 18.1549 17.8582 18.176 17.8233 18.1904C17.7884 18.2047 17.751 18.212 17.7132 18.2119H1.94138C1.86553 18.2116 1.7929 18.1813 1.73938 18.1275C1.68585 18.0738 1.65578 18.001 1.65575 17.9252V5.61859L9.82729 2.06033Z" fill="white"/>
<path d="M6.73774 15.0163C6.70448 15.0422 6.6626 15.0545 6.62062 15.0506C6.57865 15.0467 6.53973 15.027 6.51179 14.9954C6.48386 14.9638 6.46901 14.9228 6.47027 14.8807C6.47153 14.8385 6.4888 14.7985 6.51857 14.7686C6.96064 14.3757 7.24881 13.8386 7.33171 13.253C7.41462 12.6674 7.28688 12.0713 6.97126 11.5711C6.87293 11.4155 6.75256 11.275 6.61391 11.1538C6.3108 10.8887 6.06833 10.5614 5.90301 10.1942C5.73768 9.82701 5.65337 9.42852 5.65581 9.02583C5.65825 8.62314 5.74738 8.22566 5.91714 7.8605C6.08691 7.49533 6.33331 7.17103 6.63962 6.9096C6.67305 6.88096 6.71648 6.86676 6.76037 6.87015C6.80426 6.87354 6.845 6.89422 6.87363 6.92765C6.90227 6.96108 6.91645 7.00454 6.91307 7.04843C6.90968 7.09232 6.889 7.13302 6.85557 7.16166C6.58541 7.39213 6.36804 7.67813 6.21827 8.00012C6.06849 8.3221 5.9898 8.67254 5.98757 9.02765C5.98533 9.38275 6.0596 9.73418 6.20531 10.058C6.35102 10.3819 6.56476 10.6705 6.832 10.9044C6.99453 11.0466 7.13561 11.2116 7.25084 11.3943C7.60834 11.9609 7.75299 12.6361 7.65902 13.2995C7.56505 13.9628 7.23855 14.5713 6.73774 15.0163Z" fill="white"/>
<path d="M10.0201 15.0163C9.98709 15.0447 9.94428 15.059 9.90087 15.0561C9.85746 15.0532 9.81692 15.0334 9.78801 15.0009C9.7591 14.9683 9.74414 14.9258 9.74635 14.8823C9.74856 14.8389 9.76776 14.798 9.79982 14.7686C10.2419 14.3757 10.53 13.8385 10.6128 13.2529C10.6957 12.6673 10.5679 12.0713 10.2523 11.5711C10.154 11.4155 10.0337 11.275 9.89516 11.1538C9.59205 10.8887 9.34958 10.5614 9.18426 10.1942C9.01893 9.82701 8.93462 9.42852 8.93706 9.02583C8.9395 8.62314 9.02863 8.22566 9.19839 7.8605C9.36816 7.49533 9.61457 7.17103 9.92087 6.9096C9.9543 6.88096 9.99773 6.86676 10.0416 6.87015C10.0855 6.87354 10.1263 6.89422 10.1549 6.92765C10.1835 6.96108 10.1977 7.00454 10.1943 7.04843C10.1909 7.09232 10.1702 7.13302 10.1368 7.16166C9.86666 7.39213 9.6493 7.67813 9.49952 8.00012C9.34974 8.3221 9.27106 8.67254 9.26882 9.02765C9.26658 9.38275 9.34085 9.73418 9.48656 10.058C9.63227 10.3819 9.84601 10.6705 10.1133 10.9044C10.2761 11.0465 10.4175 11.2116 10.5329 11.3943C10.8905 11.9609 11.0352 12.6361 10.9412 13.2994C10.8473 13.9628 10.5208 14.5712 10.0201 15.0163Z" fill="white"/>
<path d="M13.3017 15.0165C13.2687 15.0449 13.2259 15.0592 13.1825 15.0563C13.139 15.0534 13.0985 15.0336 13.0696 15.0011C13.0406 14.9685 13.0257 14.9259 13.0279 14.8824C13.0301 14.839 13.0494 14.7981 13.0815 14.7687C13.5235 14.3758 13.8117 13.8387 13.8946 13.2531C13.9775 12.6675 13.8498 12.0714 13.5342 11.5712C13.4361 11.4157 13.3161 11.2751 13.1779 11.1539C12.8748 10.8888 12.6323 10.5615 12.467 10.1943C12.3016 9.82711 12.2173 9.42858 12.2198 9.02589C12.2222 8.6232 12.3113 8.22577 12.4811 7.8606C12.6509 7.49543 12.8973 7.17108 13.2036 6.90965C13.2372 6.88272 13.28 6.86996 13.3229 6.87404C13.3657 6.87811 13.4053 6.8987 13.4333 6.93148C13.4612 6.96426 13.4753 7.00668 13.4725 7.04966C13.4698 7.09265 13.4504 7.13284 13.4185 7.16176C13.1483 7.39224 12.9309 7.67819 12.7812 8.00017C12.6314 8.32216 12.5527 8.67264 12.5505 9.02775C12.5482 9.38286 12.6225 9.73428 12.7682 10.0581C12.9139 10.382 13.1277 10.6706 13.3949 10.9045C13.5574 11.0467 13.6985 11.2117 13.8137 11.3944C14.1712 11.961 14.3159 12.6362 14.2219 13.2996C14.1279 13.9629 13.8014 14.5714 13.3006 15.0165H13.3017Z" fill="white"/>
</g>
</svg>
