<svg width="17" height="19" viewBox="0 0 17 19" fill="none" xmlns="http://www.w3.org/2000/svg">
<g opacity="0.8">
<path d="M8.2827 11.0936H5.83686V5.37824C5.83616 4.91334 5.65112 4.46769 5.3223 4.13904C4.99348 3.81039 4.54774 3.62556 4.08284 3.6251H2.71143V1.17926H4.08284C5.19621 1.18042 6.26365 1.62315 7.051 2.41034C7.83835 3.19752 8.28131 4.26488 8.2827 5.37824V11.0936ZM6.18626 10.7442H7.93329V5.37824C7.9319 4.35754 7.52576 3.37906 6.80394 2.6574C6.08211 1.93574 5.10354 1.52982 4.08284 1.52867H3.06083V3.27569H4.08284C4.64034 3.27639 5.17482 3.4981 5.56911 3.89223C5.9634 4.28636 6.18534 4.82074 6.18626 5.37824V10.7442Z" fill="white"/>
<path d="M8.03031 18.543H6.08849C6.02169 18.5427 5.9577 18.516 5.91054 18.4687C5.86339 18.4214 5.83691 18.3573 5.83691 18.2905V14.7091H8.28275V18.2905C8.28252 18.3574 8.25585 18.4215 8.20856 18.4688C8.16127 18.5161 8.09719 18.5427 8.03031 18.543ZM6.18632 18.1936H7.93335V15.062H6.18632V18.1936Z" fill="white"/>
<path d="M15.0069 2.02917H12.561V0.239343C12.561 0.207912 12.5672 0.176789 12.5793 0.14775C12.5913 0.118712 12.6089 0.0923268 12.6311 0.0701018C12.6534 0.0478768 12.6797 0.0302469 12.7088 0.0182188C12.7378 0.00619065 12.7689 0 12.8004 0H14.7658C14.8291 0.000231119 14.8898 0.0255494 14.9345 0.0704098C14.9792 0.11527 15.0043 0.176016 15.0043 0.239343L15.0069 2.02917ZM12.9104 1.67977H14.6575V0.349405H12.9104V1.67977Z" fill="white"/>
<path d="M10.8071 14.04H9.3125V11.5941H10.8071C11.2721 11.5939 11.7179 11.4091 12.0468 11.0804C12.3757 10.7517 12.5606 10.306 12.5611 9.84099V4.72919H15.0069V9.84448C15.0049 10.9573 14.5616 12.0239 13.7743 12.8104C12.987 13.5969 11.9199 14.039 10.8071 14.04ZM9.66191 13.6906H10.8071C11.8278 13.6896 12.8066 13.2838 13.5284 12.5621C14.2503 11.8404 14.6564 10.8618 14.6575 9.84099V5.07859H12.9105V9.84448C12.9098 10.4021 12.6879 10.9366 12.2936 11.3308C11.8993 11.7249 11.3646 11.9466 10.8071 11.947H9.66191V13.6906Z" fill="white"/>
<path d="M2.61031 3.98061H1.84424V0.82373H2.61031C2.73001 0.824193 2.84465 0.872068 2.92913 0.956875C3.01361 1.04168 3.06104 1.15651 3.06104 1.27621V3.52813C3.06104 3.64783 3.01361 3.76266 2.92913 3.84746C2.84465 3.93227 2.73001 3.98015 2.61031 3.98061ZM2.19364 3.6312H2.61031C2.62373 3.63109 2.637 3.62833 2.64935 3.62309C2.66171 3.61785 2.67291 3.61022 2.68232 3.60065C2.69173 3.59108 2.69916 3.57975 2.70419 3.56731C2.70922 3.55486 2.71175 3.54155 2.71164 3.52813V1.27621C2.71175 1.26272 2.70919 1.24933 2.70411 1.23683C2.69903 1.22433 2.69152 1.21296 2.68201 1.20338C2.67251 1.19379 2.66121 1.18619 2.64875 1.181C2.63629 1.17581 2.62293 1.17314 2.60944 1.17314H2.19364V3.6312Z" fill="white"/>
<path d="M2.19333 3.98061H1.84393L1.84131 3.80591V0.82373H2.19071L2.19333 0.998433V3.98061Z" fill="white"/>
<path d="M1.74198 4.41156H1.10257C1.0367 4.41132 0.973598 4.38499 0.927099 4.33833C0.8806 4.29167 0.854492 4.22848 0.854492 4.1626V0.548878C0.854492 0.483003 0.8806 0.419813 0.927099 0.373151C0.973598 0.326489 1.0367 0.300158 1.10257 0.299927H1.74198C1.86184 0.300158 1.9767 0.347932 2.06137 0.432764C2.14604 0.517595 2.19359 0.632553 2.19359 0.752407V3.95908C2.19359 4.07893 2.14604 4.19389 2.06137 4.27872C1.9767 4.36355 1.86184 4.41132 1.74198 4.41156ZM1.2039 4.06215H1.74198C1.76917 4.06192 1.79516 4.05096 1.8143 4.03165C1.83344 4.01235 1.84418 3.98626 1.84418 3.95908V0.752407C1.84418 0.72522 1.83344 0.699134 1.8143 0.679829C1.79516 0.660524 1.76917 0.649563 1.74198 0.649332H1.2039V4.06215Z" fill="white"/>
<path d="M8.81284 15.062H5.25677C5.03181 15.0618 4.81611 14.9724 4.65696 14.8134C4.49781 14.6544 4.40818 14.4388 4.40771 14.2138V11.5933C4.40818 11.3683 4.49781 11.1527 4.65696 10.9937C4.81611 10.8348 5.03181 10.7453 5.25677 10.7451H8.81284C9.03781 10.7453 9.2535 10.8348 9.41265 10.9937C9.57181 11.1527 9.66144 11.3683 9.6619 11.5933V14.2138C9.66144 14.4388 9.57181 14.6544 9.41265 14.8134C9.2535 14.9724 9.03781 15.0618 8.81284 15.062ZM5.25677 11.0936C5.12441 11.0936 4.99745 11.1462 4.90377 11.2397C4.8101 11.3332 4.75735 11.4601 4.75712 11.5924V14.213C4.75735 14.3453 4.8101 14.4722 4.90377 14.5657C4.99745 14.6592 5.12441 14.7117 5.25677 14.7117H8.81284C8.94521 14.7117 9.07216 14.6592 9.16584 14.5657C9.25952 14.4722 9.31226 14.3453 9.31249 14.213V11.5924C9.31226 11.4601 9.25952 11.3332 9.16584 11.2397C9.07216 11.1462 8.94521 11.0936 8.81284 11.0936H5.25677Z" fill="white"/>
<path d="M15.1379 5.0786H12.43C12.2552 5.07837 12.0876 5.00882 11.9639 4.88519C11.8403 4.76156 11.7707 4.59394 11.7705 4.4191V3.66002C11.7704 3.6057 11.7572 3.55222 11.7321 3.50404C11.707 3.45586 11.6708 3.41439 11.6264 3.38312C11.5342 3.31844 11.4589 3.23243 11.4071 3.13242C11.3552 3.03195 11.3279 2.92056 11.3276 2.80747V2.10866C11.3288 1.99358 11.3753 1.88361 11.4571 1.80264C11.5389 1.72168 11.6493 1.67626 11.7644 1.67627H15.8472C15.9605 1.67898 16.0682 1.7256 16.1478 1.80627C16.2273 1.88695 16.2724 1.99537 16.2735 2.10866V2.79262C16.274 2.90814 16.2458 3.02199 16.1916 3.12397C16.1373 3.22595 16.0586 3.31289 15.9625 3.377L15.9503 3.38574C15.903 3.41608 15.8642 3.45784 15.8373 3.50714C15.8104 3.55645 15.7964 3.61173 15.7965 3.66788V4.41211C15.7975 4.49923 15.7811 4.58567 15.7484 4.66644C15.7158 4.7472 15.6674 4.8207 15.6062 4.88267C15.5449 4.94464 15.472 4.99386 15.3916 5.02749C15.3113 5.06112 15.225 5.07849 15.1379 5.0786ZM11.7592 2.02917C11.7367 2.02914 11.7151 2.03774 11.6989 2.05319C11.6826 2.06864 11.6729 2.08975 11.6718 2.11215V2.81096C11.6719 2.86812 11.6857 2.92442 11.712 2.97518C11.7381 3.02528 11.7759 3.06841 11.822 3.10097C11.9123 3.16446 11.986 3.2487 12.0369 3.34659C12.0878 3.44448 12.1145 3.55317 12.1147 3.66351V4.4191C12.1147 4.46019 12.1228 4.50088 12.1387 4.53879C12.1545 4.5767 12.1778 4.61108 12.207 4.63993C12.2363 4.66879 12.271 4.69154 12.3091 4.70686C12.3473 4.72219 12.388 4.72978 12.4291 4.7292H15.137C15.1777 4.7292 15.218 4.72117 15.2556 4.70558C15.2931 4.68998 15.3273 4.66713 15.356 4.63832C15.3847 4.60951 15.4075 4.57532 15.423 4.53771C15.4385 4.50009 15.4464 4.45978 15.4463 4.4191V3.67137C15.446 3.55862 15.4737 3.44756 15.5267 3.34805C15.5797 3.24855 15.6565 3.16368 15.7502 3.10097L15.7625 3.09223C15.812 3.06043 15.8528 3.0166 15.8809 2.96483C15.909 2.91306 15.9235 2.85502 15.9232 2.79611V2.10866C15.9222 2.08713 15.9132 2.06675 15.898 2.05144C15.8829 2.03612 15.8626 2.02694 15.8411 2.02567L11.7592 2.02917Z" fill="white"/>
</g>
</svg>
