<svg width="16" height="19" viewBox="0 0 16 19" fill="none" xmlns="http://www.w3.org/2000/svg">
<g opacity="0.8">
<path d="M4.82962 3.48199C4.82962 2.01942 3.08427 0.17138 3.00987 0.0934994C2.96559 0.0469103 2.89954 0.020023 2.83973 0.0214137C2.77553 0.0221091 2.71434 0.0492282 2.67099 0.0965128C2.59682 0.177638 0.854248 2.09475 0.854248 3.48176C0.854248 4.20192 1.24064 4.83192 1.81547 5.18076C1.63328 5.30847 1.51322 5.5194 1.51322 5.75837C1.51322 6.02562 1.66434 6.25602 1.88408 6.37585L2.25656 17.6794C2.2649 17.932 2.28437 18.5238 2.84159 18.5238C3.39904 18.5238 3.41827 17.932 3.42662 17.6794L3.7991 6.37585C4.01883 6.25602 4.16996 6.02585 4.16996 5.75837C4.16996 5.5194 4.04989 5.3087 3.86771 5.18076C4.44324 4.83238 4.82962 4.20238 4.82962 3.48199ZM3.46463 6.00082H2.21901C2.0855 6.00082 1.97679 5.89211 1.97679 5.7586C1.97679 5.62509 2.0855 5.51638 2.21901 5.51638H3.46463C3.59814 5.51638 3.70685 5.62509 3.70685 5.7586C3.70685 5.89211 3.59837 6.00082 3.46463 6.00082ZM2.96374 17.6643C2.95076 18.0602 2.8905 18.0602 2.84205 18.0602C2.79361 18.0602 2.73334 18.0602 2.72036 17.6641L2.35113 6.46439H3.33298L2.96374 17.6643ZM2.84205 5.00599C2.00182 5.00599 1.31805 4.32245 1.31805 3.48199C1.31805 2.50524 2.41672 1.11012 2.84507 0.602967C3.2748 1.09644 4.36605 2.45124 4.36605 3.48199C4.36605 4.32245 3.68228 5.00599 2.84205 5.00599Z" fill="white"/>
<path d="M13.7428 14.2549C13.6148 14.2549 13.511 14.3585 13.511 14.4867V15.3102C13.511 15.4384 13.6148 15.542 13.7428 15.542C13.8707 15.542 13.9746 15.4384 13.9746 15.3102V14.4867C13.9746 14.3585 13.871 14.2549 13.7428 14.2549Z" fill="white"/>
<path d="M10.4687 0C9.58467 0 8.86544 0.719235 8.86544 1.60327V6.6991C8.86544 7.41463 8.28342 7.99665 7.5679 7.99665H6.27568C5.67999 7.99665 5.19556 8.48131 5.19556 9.07677V18.3112C5.19556 18.4393 5.2994 18.5429 5.42734 18.5429H15.5101C15.638 18.5429 15.7419 18.4393 15.7419 18.3112V9.07677C15.7419 8.48131 15.2574 7.99665 14.6617 7.99665H13.3693C12.654 7.99665 12.0717 7.41463 12.0717 6.6991V1.60327C12.072 0.719003 11.3527 0 10.4687 0ZM13.9745 18.0794V16.471C13.9745 16.3428 13.8706 16.2392 13.7427 16.2392C13.6147 16.2392 13.5109 16.3428 13.5109 16.471V18.0794H12.3327V15.2979C12.3327 15.1698 12.2289 15.0661 12.101 15.0661C11.973 15.0661 11.8692 15.1698 11.8692 15.2979V18.0794H10.691V16.112C10.691 15.9838 10.5872 15.8802 10.4592 15.8802C10.3313 15.8802 10.2274 15.9838 10.2274 16.112V18.0794H9.04925V13.299C9.04925 13.1708 8.94541 13.0672 8.81746 13.0672C8.68951 13.0672 8.58567 13.1708 8.58567 13.299V18.0794H7.4075V15.2979C7.4075 15.1698 7.30366 15.0661 7.17571 15.0661C7.04777 15.0661 6.94393 15.1698 6.94393 15.2979V18.0794H5.65936V11.3963H15.2785V18.0794H13.9745ZM13.3693 8.46022H14.6617C15.0018 8.46022 15.2783 8.73674 15.2783 9.07677V10.9327H5.65913V9.07677C5.65913 8.73674 5.93565 8.46022 6.27568 8.46022H7.5679C8.53885 8.46022 9.32901 7.67029 9.32901 6.6991V1.60327C9.32901 0.974896 9.84033 0.463574 10.4687 0.463574C11.0971 0.463574 11.6084 0.974896 11.6084 1.60327V6.6991C11.6084 7.67029 12.3983 8.46022 13.3693 8.46022Z" fill="white"/>
</g>
</svg>
