<svg width="19" height="20" viewBox="0 0 19 20" fill="none" xmlns="http://www.w3.org/2000/svg">
<g opacity="0.8">
<path d="M17.9635 0H9.58057V9.58052H18.5623V0H17.9635ZM17.9635 8.98174H10.1793V0.598783H17.9635V8.98174Z" fill="white"/>
<path d="M0.598783 10.1793H0V19.161H8.98174V10.1793H0.598783ZM8.38296 18.5622H0.598783V10.7781H8.38296V18.5622Z" fill="white"/>
<path d="M10.1793 10.1793H9.58057V19.161H18.5623V10.1793H10.1793ZM17.9635 18.5622H10.1793V10.7781H17.9635V18.5622Z" fill="white"/>
<path d="M8.98169 0H1.19751V0.598783H8.98169V0Z" fill="white"/>
<path d="M8.98169 1.79037H1.19751V2.39515H8.98169V1.79037Z" fill="white"/>
<path d="M8.98169 3.59271H1.19751V4.1915H8.98169V3.59271Z" fill="white"/>
<path d="M8.98169 5.39502H1.19751V5.98781H8.98169V5.39502Z" fill="white"/>
<path d="M8.98169 7.18536H1.19751V7.78415H8.98169V7.18536Z" fill="white"/>
<path d="M8.98169 8.98175H1.19751V9.58053H8.98169V8.98175Z" fill="white"/>
<path d="M0.59937 0H0V0.59937H0.59937V0Z" fill="white"/>
<path d="M0.59937 1.79633H0V2.3957H0.59937V1.79633Z" fill="white"/>
<path d="M0.59937 3.59271H0V4.19208H0.59937V3.59271Z" fill="white"/>
<path d="M0.59937 5.38904H0V5.98841H0.59937V5.38904Z" fill="white"/>
<path d="M0.59937 8.98175H0V9.58112H0.59937V8.98175Z" fill="white"/>
<path d="M0.59937 7.18536H0V7.78473H0.59937V7.18536Z" fill="white"/>
</g>
</svg>
